<?xml version="1.0" encoding="UTF-8" standalone="no"?>
<!DOCTYPE svg PUBLIC "-//W3C//DTD SVG 1.1//EN" "http://www.w3.org/Graphics/SVG/1.1/DTD/svg11.dtd">
<svg width="100%" height="100%" viewBox="0 0 188 48" version="1.1" xmlns="http://www.w3.org/2000/svg" xmlns:xlink="http://www.w3.org/1999/xlink" xml:space="preserve" xmlns:serif="http://www.serif.com/" style="fill-rule:evenodd;clip-rule:evenodd;stroke-linejoin:round;stroke-miterlimit:2;">
    <g transform="matrix(1,0,0,1,-3207.72,-831.883)">
        <g transform="matrix(1,0,0,1.03284,1460.7,804.514)">
            <g transform="matrix(1,0,0,0.968202,56.767,-13.1278)">
                <g transform="matrix(40,0,0,40,1691.45,69.8077)">
                    <path d="M0.902,0.163C0.887,0.163 0.872,0.159 0.859,0.151C0.82,0.125 0.791,0.071 0.772,-0.011C0.767,-0.031 0.763,-0.051 0.76,-0.071C0.757,-0.092 0.755,-0.112 0.752,-0.133C0.746,-0.195 0.743,-0.256 0.743,-0.317L0.743,-0.365C0.72,-0.327 0.695,-0.29 0.668,-0.254C0.641,-0.217 0.615,-0.183 0.589,-0.152C0.571,-0.131 0.55,-0.108 0.526,-0.084C0.501,-0.06 0.475,-0.038 0.449,-0.018C0.422,0.002 0.395,0.018 0.368,0.03C0.357,0.035 0.347,0.038 0.337,0.04C0.327,0.043 0.318,0.044 0.309,0.044C0.288,0.044 0.272,0.038 0.26,0.025C0.247,0.012 0.241,-0.005 0.241,-0.027C0.241,-0.048 0.247,-0.072 0.259,-0.099C0.266,-0.111 0.276,-0.129 0.289,-0.154C0.302,-0.179 0.317,-0.206 0.334,-0.237L0.44,-0.429C0.455,-0.455 0.47,-0.483 0.486,-0.514C0.502,-0.545 0.517,-0.574 0.53,-0.602C0.543,-0.63 0.551,-0.654 0.555,-0.674C0.546,-0.659 0.537,-0.644 0.526,-0.627C0.515,-0.611 0.504,-0.595 0.493,-0.578L0.414,-0.463C0.397,-0.437 0.379,-0.412 0.361,-0.388C0.343,-0.364 0.325,-0.343 0.308,-0.325C0.231,-0.242 0.149,-0.201 0.06,-0.201C0.034,-0.201 0.013,-0.21 -0.004,-0.229C-0.021,-0.248 -0.03,-0.268 -0.03,-0.291C-0.03,-0.304 -0.027,-0.316 -0.021,-0.327C-0.015,-0.342 -0.004,-0.357 0.011,-0.374C0.026,-0.391 0.043,-0.406 0.062,-0.421C0.081,-0.436 0.097,-0.446 0.112,-0.452C0.115,-0.454 0.118,-0.455 0.119,-0.455C0.123,-0.455 0.125,-0.453 0.125,-0.449C0.125,-0.445 0.123,-0.442 0.118,-0.439C0.111,-0.431 0.102,-0.42 0.091,-0.405C0.08,-0.39 0.069,-0.373 0.059,-0.356C0.048,-0.339 0.04,-0.322 0.034,-0.305C0.029,-0.289 0.027,-0.275 0.027,-0.263C0.027,-0.239 0.037,-0.227 0.056,-0.227C0.082,-0.227 0.11,-0.236 0.14,-0.254C0.171,-0.273 0.202,-0.297 0.234,-0.326C0.265,-0.355 0.296,-0.388 0.327,-0.425C0.342,-0.444 0.358,-0.462 0.373,-0.48C0.388,-0.498 0.402,-0.516 0.415,-0.533C0.423,-0.544 0.432,-0.555 0.441,-0.566C0.45,-0.577 0.459,-0.589 0.468,-0.601C0.484,-0.622 0.499,-0.641 0.514,-0.66C0.529,-0.678 0.54,-0.692 0.549,-0.703C0.551,-0.705 0.553,-0.707 0.555,-0.709C0.557,-0.711 0.559,-0.713 0.56,-0.716C0.563,-0.72 0.567,-0.722 0.57,-0.722C0.574,-0.722 0.578,-0.72 0.582,-0.715C0.6,-0.695 0.609,-0.669 0.609,-0.637C0.609,-0.584 0.585,-0.515 0.536,-0.428C0.524,-0.407 0.511,-0.383 0.496,-0.358C0.481,-0.333 0.467,-0.308 0.452,-0.283C0.434,-0.252 0.417,-0.224 0.402,-0.198C0.387,-0.172 0.376,-0.152 0.369,-0.139C0.363,-0.126 0.356,-0.111 0.349,-0.095C0.342,-0.079 0.335,-0.064 0.33,-0.049C0.325,-0.034 0.322,-0.021 0.322,-0.011C0.322,0 0.327,0.006 0.336,0.006C0.342,0.006 0.351,0.003 0.363,-0.002C0.38,-0.009 0.399,-0.021 0.419,-0.038C0.438,-0.054 0.458,-0.072 0.477,-0.093C0.497,-0.113 0.516,-0.133 0.533,-0.153C0.55,-0.173 0.565,-0.19 0.576,-0.205C0.605,-0.242 0.635,-0.28 0.665,-0.32C0.695,-0.36 0.722,-0.4 0.747,-0.441C0.748,-0.464 0.749,-0.484 0.751,-0.5C0.754,-0.517 0.756,-0.53 0.757,-0.539C0.76,-0.552 0.766,-0.562 0.774,-0.568C0.782,-0.573 0.79,-0.576 0.799,-0.576C0.81,-0.576 0.821,-0.571 0.83,-0.562C0.839,-0.553 0.841,-0.539 0.838,-0.522C0.835,-0.503 0.831,-0.475 0.827,-0.438C0.822,-0.401 0.819,-0.36 0.816,-0.315C0.813,-0.27 0.811,-0.227 0.811,-0.184L0.811,-0.159C0.811,-0.151 0.811,-0.143 0.812,-0.135C0.818,0.042 0.85,0.13 0.908,0.13C0.914,0.13 0.92,0.129 0.927,0.127C0.944,0.122 0.962,0.11 0.981,0.09C1,0.069 1.019,0.043 1.036,0.012C1.053,-0.019 1.069,-0.053 1.084,-0.092C1.091,-0.111 1.098,-0.132 1.105,-0.153C1.111,-0.173 1.116,-0.195 1.121,-0.217C1.134,-0.28 1.141,-0.341 1.141,-0.399C1.141,-0.414 1.141,-0.428 1.14,-0.442C1.139,-0.456 1.137,-0.47 1.136,-0.483C1.133,-0.5 1.13,-0.518 1.125,-0.539C1.12,-0.56 1.113,-0.579 1.104,-0.596C1.095,-0.613 1.082,-0.622 1.067,-0.622C1.049,-0.622 1.03,-0.61 1.011,-0.587C1.007,-0.581 1.003,-0.578 0.999,-0.578C0.996,-0.578 0.994,-0.581 0.994,-0.586C0.994,-0.591 0.995,-0.597 0.998,-0.603C1,-0.609 1.005,-0.616 1.014,-0.624C1.022,-0.632 1.031,-0.639 1.042,-0.646C1.052,-0.653 1.061,-0.657 1.068,-0.659C1.075,-0.661 1.082,-0.662 1.089,-0.663C1.096,-0.664 1.102,-0.664 1.108,-0.664C1.181,-0.664 1.218,-0.606 1.218,-0.489C1.218,-0.472 1.217,-0.452 1.215,-0.431C1.212,-0.4 1.208,-0.367 1.202,-0.334C1.195,-0.3 1.188,-0.267 1.18,-0.235C1.172,-0.204 1.164,-0.175 1.156,-0.149C1.148,-0.123 1.141,-0.102 1.135,-0.085C1.12,-0.048 1.103,-0.013 1.082,0.021C1.061,0.055 1.039,0.084 1.014,0.108C0.989,0.133 0.963,0.149 0.934,0.158C0.929,0.16 0.923,0.161 0.918,0.162C0.913,0.163 0.907,0.163 0.902,0.163Z" style="fill:rgb(34,34,34);fill-rule:nonzero;"/>
                </g>
                <g transform="matrix(40,0,0,40,1739.25,69.8077)">
                    <path d="M0.071,0.149C0.043,0.149 0.021,0.138 0.007,0.115C-0.008,0.093 -0.016,0.062 -0.016,0.023C-0.016,0.01 -0.015,-0.004 -0.013,-0.019C-0.008,-0.056 0.003,-0.095 0.021,-0.134C0.039,-0.173 0.063,-0.213 0.094,-0.252C0.116,-0.281 0.141,-0.303 0.168,-0.319C0.195,-0.334 0.222,-0.342 0.248,-0.342C0.267,-0.342 0.283,-0.338 0.297,-0.331C0.314,-0.321 0.323,-0.304 0.323,-0.28C0.323,-0.263 0.317,-0.244 0.305,-0.223C0.293,-0.202 0.272,-0.181 0.243,-0.162C0.206,-0.139 0.174,-0.123 0.149,-0.115C0.123,-0.106 0.102,-0.101 0.087,-0.1C0.082,-0.093 0.078,-0.082 0.073,-0.067C0.068,-0.051 0.063,-0.036 0.059,-0.02C0.056,-0.003 0.053,0.011 0.052,0.024L0.051,0.042C0.051,0.087 0.065,0.11 0.094,0.11C0.109,0.11 0.127,0.104 0.147,0.093C0.166,0.082 0.186,0.068 0.204,0.052C0.224,0.036 0.241,0.02 0.256,0.005C0.271,-0.01 0.281,-0.021 0.287,-0.028L0.361,-0.114L0.381,-0.137C0.384,-0.141 0.388,-0.145 0.391,-0.149C0.394,-0.153 0.398,-0.157 0.401,-0.16C0.404,-0.163 0.407,-0.165 0.41,-0.165C0.417,-0.165 0.421,-0.161 0.421,-0.153C0.421,-0.149 0.419,-0.144 0.415,-0.139C0.408,-0.13 0.401,-0.12 0.393,-0.11C0.384,-0.1 0.376,-0.091 0.369,-0.082L0.335,-0.041C0.322,-0.025 0.307,-0.008 0.292,0.01C0.277,0.029 0.262,0.045 0.247,0.059C0.185,0.119 0.126,0.149 0.071,0.149ZM0.103,-0.128C0.116,-0.131 0.132,-0.138 0.151,-0.149C0.169,-0.16 0.187,-0.171 0.203,-0.183C0.221,-0.195 0.234,-0.205 0.243,-0.213C0.257,-0.224 0.268,-0.237 0.275,-0.251C0.282,-0.265 0.286,-0.277 0.286,-0.287C0.286,-0.301 0.28,-0.308 0.269,-0.308C0.264,-0.308 0.258,-0.307 0.252,-0.304C0.236,-0.297 0.219,-0.283 0.2,-0.262C0.181,-0.241 0.164,-0.219 0.147,-0.194C0.13,-0.169 0.115,-0.147 0.103,-0.128Z" style="fill:rgb(34,34,34);fill-rule:nonzero;"/>
                </g>
                <g transform="matrix(40,0,0,40,1753.85,69.8077)">
                    <path d="M0.198,0.151C0.183,0.151 0.171,0.145 0.161,0.134C0.15,0.123 0.146,0.108 0.148,0.087C0.151,0.066 0.158,0.038 0.17,0.005C0.182,-0.028 0.197,-0.064 0.214,-0.105C0.201,-0.086 0.186,-0.067 0.17,-0.05C0.153,-0.033 0.136,-0.019 0.118,-0.008C0.1,0.003 0.082,0.009 0.063,0.009C0.022,0.009 0.001,-0.011 0.001,-0.05L0.001,-0.058C0.001,-0.061 0.001,-0.063 0.002,-0.066C0.004,-0.083 0.009,-0.102 0.018,-0.123C0.027,-0.144 0.034,-0.16 0.041,-0.171C0.058,-0.198 0.08,-0.225 0.105,-0.252C0.13,-0.278 0.156,-0.3 0.185,-0.317C0.213,-0.334 0.24,-0.343 0.267,-0.343C0.284,-0.343 0.3,-0.34 0.316,-0.333C0.331,-0.364 0.347,-0.394 0.362,-0.422C0.377,-0.45 0.391,-0.474 0.404,-0.495C0.426,-0.533 0.446,-0.562 0.465,-0.583C0.484,-0.603 0.502,-0.617 0.521,-0.626C0.539,-0.635 0.558,-0.64 0.577,-0.643L0.582,-0.635C0.537,-0.578 0.498,-0.523 0.463,-0.469C0.428,-0.414 0.395,-0.356 0.362,-0.293C0.363,-0.291 0.363,-0.288 0.363,-0.284C0.363,-0.273 0.358,-0.266 0.348,-0.264C0.341,-0.25 0.332,-0.232 0.321,-0.21C0.31,-0.188 0.299,-0.164 0.288,-0.137C0.276,-0.11 0.265,-0.083 0.254,-0.056C0.243,-0.028 0.233,-0.002 0.226,0.022C0.221,0.039 0.218,0.052 0.215,0.062C0.212,0.072 0.21,0.08 0.21,0.085C0.21,0.098 0.225,0.088 0.254,0.057L0.301,0.007C0.308,-0 0.315,-0.007 0.32,-0.013C0.325,-0.019 0.33,-0.024 0.333,-0.028L0.407,-0.114C0.414,-0.122 0.42,-0.13 0.427,-0.138C0.434,-0.145 0.44,-0.153 0.446,-0.16C0.449,-0.163 0.452,-0.165 0.456,-0.165C0.463,-0.165 0.467,-0.161 0.467,-0.153C0.467,-0.149 0.465,-0.144 0.461,-0.139C0.454,-0.13 0.447,-0.12 0.439,-0.11C0.43,-0.1 0.422,-0.091 0.415,-0.082C0.413,-0.08 0.407,-0.073 0.398,-0.062C0.389,-0.051 0.378,-0.037 0.365,-0.021C0.352,-0.004 0.339,0.013 0.326,0.03C0.313,0.048 0.3,0.064 0.289,0.079C0.278,0.094 0.269,0.105 0.263,0.113C0.254,0.126 0.243,0.135 0.232,0.141C0.22,0.148 0.209,0.151 0.198,0.151ZM0.071,-0.025C0.081,-0.025 0.096,-0.033 0.117,-0.05C0.131,-0.061 0.147,-0.075 0.165,-0.094C0.182,-0.112 0.199,-0.13 0.215,-0.148C0.23,-0.166 0.242,-0.18 0.249,-0.19C0.256,-0.209 0.265,-0.229 0.274,-0.249C0.283,-0.268 0.293,-0.288 0.303,-0.309C0.301,-0.31 0.299,-0.31 0.297,-0.311C0.295,-0.311 0.293,-0.311 0.291,-0.311C0.274,-0.311 0.255,-0.303 0.234,-0.288C0.213,-0.272 0.193,-0.254 0.175,-0.235C0.153,-0.212 0.133,-0.187 0.114,-0.16C0.095,-0.133 0.081,-0.107 0.072,-0.083C0.064,-0.064 0.06,-0.05 0.06,-0.039C0.06,-0.03 0.064,-0.025 0.071,-0.025Z" style="fill:rgb(34,34,34);fill-rule:nonzero;"/>
                </g>
                <g transform="matrix(40,0,0,40,1770.29,69.8077)">
                    <path d="M0.198,0.151C0.183,0.151 0.171,0.145 0.161,0.134C0.15,0.123 0.146,0.108 0.148,0.087C0.151,0.066 0.158,0.038 0.17,0.005C0.182,-0.028 0.197,-0.064 0.214,-0.105C0.201,-0.086 0.186,-0.067 0.17,-0.05C0.153,-0.033 0.136,-0.019 0.118,-0.008C0.1,0.003 0.082,0.009 0.063,0.009C0.022,0.009 0.001,-0.011 0.001,-0.05L0.001,-0.058C0.001,-0.061 0.001,-0.063 0.002,-0.066C0.004,-0.083 0.009,-0.102 0.018,-0.123C0.027,-0.144 0.034,-0.16 0.041,-0.171C0.058,-0.198 0.08,-0.225 0.105,-0.252C0.13,-0.278 0.156,-0.3 0.185,-0.317C0.213,-0.334 0.24,-0.343 0.267,-0.343C0.284,-0.343 0.3,-0.34 0.316,-0.333C0.331,-0.364 0.347,-0.394 0.362,-0.422C0.377,-0.45 0.391,-0.474 0.404,-0.495C0.426,-0.533 0.446,-0.562 0.465,-0.583C0.484,-0.603 0.502,-0.617 0.521,-0.626C0.539,-0.635 0.558,-0.64 0.577,-0.643L0.582,-0.635C0.537,-0.578 0.498,-0.523 0.463,-0.469C0.428,-0.414 0.395,-0.356 0.362,-0.293C0.363,-0.291 0.363,-0.288 0.363,-0.284C0.363,-0.273 0.358,-0.266 0.348,-0.264C0.341,-0.25 0.332,-0.232 0.321,-0.21C0.31,-0.188 0.299,-0.164 0.288,-0.137C0.276,-0.11 0.265,-0.083 0.254,-0.056C0.243,-0.028 0.233,-0.002 0.226,0.022C0.221,0.039 0.218,0.052 0.215,0.062C0.212,0.072 0.21,0.08 0.21,0.085C0.21,0.098 0.225,0.088 0.254,0.057L0.301,0.007C0.308,-0 0.315,-0.007 0.32,-0.013C0.325,-0.019 0.33,-0.024 0.333,-0.028L0.407,-0.114C0.414,-0.122 0.42,-0.13 0.427,-0.138C0.434,-0.145 0.44,-0.153 0.446,-0.16C0.449,-0.163 0.452,-0.165 0.456,-0.165C0.463,-0.165 0.467,-0.161 0.467,-0.153C0.467,-0.149 0.465,-0.144 0.461,-0.139C0.454,-0.13 0.447,-0.12 0.439,-0.11C0.43,-0.1 0.422,-0.091 0.415,-0.082C0.413,-0.08 0.407,-0.073 0.398,-0.062C0.389,-0.051 0.378,-0.037 0.365,-0.021C0.352,-0.004 0.339,0.013 0.326,0.03C0.313,0.048 0.3,0.064 0.289,0.079C0.278,0.094 0.269,0.105 0.263,0.113C0.254,0.126 0.243,0.135 0.232,0.141C0.22,0.148 0.209,0.151 0.198,0.151ZM0.071,-0.025C0.081,-0.025 0.096,-0.033 0.117,-0.05C0.131,-0.061 0.147,-0.075 0.165,-0.094C0.182,-0.112 0.199,-0.13 0.215,-0.148C0.23,-0.166 0.242,-0.18 0.249,-0.19C0.256,-0.209 0.265,-0.229 0.274,-0.249C0.283,-0.268 0.293,-0.288 0.303,-0.309C0.301,-0.31 0.299,-0.31 0.297,-0.311C0.295,-0.311 0.293,-0.311 0.291,-0.311C0.274,-0.311 0.255,-0.303 0.234,-0.288C0.213,-0.272 0.193,-0.254 0.175,-0.235C0.153,-0.212 0.133,-0.187 0.114,-0.16C0.095,-0.133 0.081,-0.107 0.072,-0.083C0.064,-0.064 0.06,-0.05 0.06,-0.039C0.06,-0.03 0.064,-0.025 0.071,-0.025Z" style="fill:rgb(34,34,34);fill-rule:nonzero;"/>
                </g>
                <g transform="matrix(40,0,0,40,1786.73,69.8077)">
                    <path d="M0.227,-0.432C0.218,-0.432 0.211,-0.435 0.205,-0.441C0.199,-0.446 0.196,-0.453 0.196,-0.462C0.196,-0.473 0.2,-0.483 0.208,-0.491C0.216,-0.499 0.225,-0.503 0.236,-0.503C0.247,-0.503 0.255,-0.499 0.261,-0.492C0.266,-0.485 0.268,-0.476 0.267,-0.466C0.264,-0.456 0.259,-0.448 0.252,-0.442C0.245,-0.435 0.236,-0.432 0.227,-0.432ZM0.065,0.005C0.046,0.005 0.032,-0.001 0.023,-0.014C0.013,-0.026 0.008,-0.043 0.008,-0.065C0.008,-0.075 0.009,-0.086 0.011,-0.098C0.014,-0.112 0.019,-0.129 0.027,-0.149C0.034,-0.168 0.043,-0.188 0.053,-0.208C0.063,-0.228 0.072,-0.245 0.08,-0.259C0.087,-0.272 0.096,-0.286 0.107,-0.304C0.117,-0.321 0.125,-0.335 0.132,-0.347C0.137,-0.356 0.141,-0.361 0.143,-0.363C0.148,-0.372 0.156,-0.38 0.169,-0.386C0.182,-0.391 0.193,-0.394 0.204,-0.394C0.218,-0.394 0.225,-0.39 0.225,-0.381C0.225,-0.377 0.223,-0.372 0.219,-0.366C0.206,-0.345 0.192,-0.322 0.174,-0.295C0.158,-0.268 0.141,-0.24 0.125,-0.211C0.109,-0.182 0.096,-0.155 0.086,-0.13C0.075,-0.104 0.07,-0.082 0.07,-0.064C0.07,-0.045 0.077,-0.036 0.091,-0.036C0.1,-0.036 0.112,-0.041 0.125,-0.051C0.138,-0.061 0.151,-0.072 0.164,-0.085C0.177,-0.098 0.186,-0.108 0.193,-0.115L0.213,-0.136C0.216,-0.139 0.219,-0.143 0.222,-0.147C0.225,-0.15 0.227,-0.154 0.23,-0.157C0.232,-0.16 0.235,-0.162 0.238,-0.162C0.246,-0.162 0.25,-0.157 0.25,-0.148C0.25,-0.143 0.248,-0.139 0.245,-0.136C0.238,-0.127 0.23,-0.118 0.223,-0.109C0.216,-0.1 0.208,-0.092 0.2,-0.083C0.189,-0.07 0.176,-0.056 0.162,-0.043C0.148,-0.029 0.133,-0.018 0.117,-0.009C0.101,0 0.084,0.005 0.065,0.005Z" style="fill:rgb(34,34,34);fill-rule:nonzero;"/>
                </g>
                <g transform="matrix(40,0,0,40,1794.57,69.8077)">
                    <path d="M0.233,0.006C0.209,0.006 0.197,-0.01 0.197,-0.043C0.197,-0.066 0.204,-0.092 0.217,-0.122C0.23,-0.151 0.245,-0.181 0.26,-0.21C0.273,-0.237 0.285,-0.263 0.297,-0.287C0.308,-0.311 0.313,-0.331 0.313,-0.347C0.313,-0.363 0.309,-0.371 0.3,-0.371C0.293,-0.371 0.284,-0.367 0.273,-0.359C0.261,-0.35 0.247,-0.336 0.232,-0.317L0.213,-0.294C0.21,-0.29 0.207,-0.286 0.204,-0.282C0.202,-0.278 0.198,-0.274 0.195,-0.271C0.176,-0.246 0.157,-0.221 0.138,-0.194C0.118,-0.167 0.1,-0.142 0.085,-0.119C0.069,-0.096 0.057,-0.078 0.049,-0.064C0.042,-0.051 0.034,-0.045 0.024,-0.045C0.017,-0.045 0.012,-0.048 0.007,-0.054C0.002,-0.059 0,-0.067 0,-0.076C0,-0.081 0.001,-0.087 0.003,-0.093C0.016,-0.118 0.029,-0.143 0.041,-0.17C0.053,-0.197 0.065,-0.223 0.076,-0.25C0.085,-0.272 0.095,-0.294 0.105,-0.315C0.114,-0.336 0.124,-0.355 0.133,-0.374C0.139,-0.385 0.149,-0.396 0.164,-0.405C0.179,-0.414 0.192,-0.419 0.204,-0.419C0.217,-0.419 0.224,-0.414 0.224,-0.404C0.224,-0.397 0.221,-0.388 0.214,-0.377C0.205,-0.362 0.192,-0.342 0.177,-0.316C0.161,-0.289 0.146,-0.264 0.133,-0.239C0.139,-0.247 0.146,-0.256 0.153,-0.266C0.16,-0.275 0.168,-0.285 0.177,-0.296L0.209,-0.334C0.228,-0.357 0.247,-0.375 0.266,-0.386C0.285,-0.397 0.303,-0.402 0.322,-0.402C0.355,-0.402 0.371,-0.387 0.371,-0.357C0.371,-0.339 0.367,-0.321 0.36,-0.304C0.353,-0.287 0.347,-0.273 0.342,-0.263C0.312,-0.199 0.29,-0.147 0.277,-0.108C0.263,-0.069 0.259,-0.049 0.266,-0.049C0.273,-0.049 0.283,-0.054 0.298,-0.064C0.312,-0.073 0.329,-0.087 0.35,-0.104C0.361,-0.114 0.371,-0.125 0.382,-0.136C0.393,-0.147 0.404,-0.16 0.415,-0.173C0.42,-0.178 0.424,-0.181 0.428,-0.181C0.433,-0.181 0.435,-0.177 0.435,-0.17C0.435,-0.163 0.433,-0.155 0.428,-0.148C0.424,-0.141 0.418,-0.133 0.408,-0.122C0.4,-0.111 0.39,-0.1 0.381,-0.09C0.348,-0.055 0.313,-0.027 0.276,-0.007C0.27,-0.004 0.265,-0.001 0.261,0C0.256,0.002 0.252,0.003 0.249,0.004C0.246,0.005 0.244,0.005 0.242,0.005C0.239,0.006 0.236,0.006 0.233,0.006Z" style="fill:rgb(34,34,34);fill-rule:nonzero;"/>
                </g>
                <g transform="matrix(40,0,0,40,1809.29,69.8077)">
                    <path d="M-0.09,0.476C-0.113,0.476 -0.133,0.469 -0.148,0.454C-0.164,0.439 -0.172,0.419 -0.172,0.392C-0.172,0.359 -0.161,0.323 -0.138,0.285C-0.116,0.248 -0.085,0.21 -0.044,0.171C-0.022,0.15 0.004,0.127 0.035,0.104C0.065,0.081 0.096,0.059 0.128,0.038C0.159,0.017 0.187,-0 0.212,-0.014C0.227,-0.047 0.242,-0.08 0.256,-0.113C0.27,-0.146 0.283,-0.178 0.295,-0.209C0.282,-0.187 0.267,-0.164 0.252,-0.14C0.237,-0.115 0.22,-0.093 0.203,-0.072C0.185,-0.051 0.167,-0.035 0.148,-0.022C0.129,-0.009 0.109,-0.003 0.089,-0.003C0.062,-0.003 0.044,-0.011 0.033,-0.028C0.022,-0.044 0.017,-0.064 0.017,-0.088C0.017,-0.113 0.021,-0.139 0.029,-0.167C0.037,-0.194 0.046,-0.218 0.055,-0.239C0.068,-0.267 0.085,-0.295 0.104,-0.323C0.123,-0.35 0.145,-0.375 0.168,-0.398C0.191,-0.42 0.215,-0.438 0.239,-0.452C0.263,-0.465 0.286,-0.472 0.308,-0.472C0.345,-0.472 0.375,-0.459 0.396,-0.433C0.417,-0.407 0.427,-0.371 0.427,-0.325C0.427,-0.312 0.425,-0.302 0.421,-0.295C0.417,-0.287 0.413,-0.283 0.408,-0.283C0.401,-0.283 0.398,-0.291 0.398,-0.308C0.399,-0.325 0.398,-0.342 0.393,-0.36C0.388,-0.377 0.38,-0.392 0.37,-0.405C0.359,-0.417 0.346,-0.423 0.331,-0.424C0.308,-0.425 0.283,-0.417 0.256,-0.398C0.229,-0.379 0.204,-0.351 0.18,-0.316C0.173,-0.305 0.166,-0.295 0.159,-0.284C0.152,-0.273 0.146,-0.263 0.14,-0.252C0.116,-0.207 0.1,-0.17 0.091,-0.139C0.087,-0.128 0.084,-0.117 0.083,-0.107C0.081,-0.097 0.08,-0.088 0.08,-0.081C0.08,-0.057 0.087,-0.045 0.102,-0.045C0.115,-0.045 0.132,-0.055 0.152,-0.075C0.164,-0.088 0.177,-0.103 0.192,-0.12C0.207,-0.137 0.221,-0.155 0.235,-0.173C0.25,-0.192 0.263,-0.209 0.275,-0.225C0.286,-0.24 0.295,-0.252 0.302,-0.261C0.303,-0.263 0.305,-0.265 0.307,-0.268C0.308,-0.271 0.31,-0.274 0.313,-0.277C0.318,-0.284 0.322,-0.294 0.327,-0.309C0.33,-0.318 0.333,-0.324 0.338,-0.328C0.342,-0.332 0.346,-0.334 0.35,-0.334C0.36,-0.334 0.365,-0.326 0.365,-0.31C0.364,-0.296 0.359,-0.274 0.35,-0.245C0.342,-0.216 0.333,-0.184 0.322,-0.15C0.311,-0.115 0.3,-0.083 0.289,-0.054C0.293,-0.056 0.297,-0.058 0.301,-0.06C0.305,-0.062 0.309,-0.064 0.312,-0.065L0.337,-0.075C0.338,-0.076 0.34,-0.076 0.343,-0.076C0.348,-0.076 0.352,-0.075 0.355,-0.071C0.358,-0.069 0.359,-0.065 0.359,-0.062C0.359,-0.055 0.356,-0.051 0.349,-0.049C0.341,-0.046 0.331,-0.042 0.318,-0.037C0.305,-0.031 0.29,-0.024 0.274,-0.015C0.257,0.034 0.237,0.081 0.217,0.127C0.196,0.173 0.175,0.213 0.156,0.246C0.09,0.359 0.029,0.43 -0.027,0.459C-0.038,0.465 -0.048,0.469 -0.059,0.472C-0.07,0.475 -0.081,0.476 -0.09,0.476ZM-0.096,0.443C-0.083,0.443 -0.071,0.439 -0.058,0.43C-0.043,0.419 -0.026,0.404 -0.009,0.383C0.008,0.362 0.026,0.339 0.043,0.313C0.06,0.287 0.077,0.261 0.092,0.234C0.107,0.208 0.12,0.184 0.13,0.162L0.189,0.035C0.168,0.05 0.145,0.065 0.122,0.081C0.099,0.098 0.076,0.115 0.053,0.133C0.031,0.152 0.009,0.172 -0.014,0.194C-0.037,0.216 -0.057,0.239 -0.076,0.262C-0.095,0.285 -0.111,0.308 -0.122,0.33C-0.134,0.352 -0.14,0.372 -0.14,0.391C-0.14,0.408 -0.136,0.42 -0.127,0.429C-0.119,0.438 -0.109,0.443 -0.096,0.443Z" style="fill:rgb(34,34,34);fill-rule:nonzero;"/>
                </g>
                <g transform="matrix(40,0,0,40,1825.25,69.8077)">
                    <path d="M0.094,0.087C0.068,0.087 0.047,0.074 0.031,0.048C0.015,0.022 0.007,-0.012 0.007,-0.055C0.007,-0.067 0.008,-0.079 0.01,-0.092C0.012,-0.105 0.014,-0.117 0.017,-0.13C0.032,-0.185 0.057,-0.238 0.092,-0.288C0.109,-0.312 0.129,-0.334 0.151,-0.353C0.199,-0.395 0.249,-0.414 0.301,-0.411C0.327,-0.41 0.352,-0.408 0.375,-0.406C0.398,-0.405 0.419,-0.403 0.439,-0.4C0.454,-0.398 0.472,-0.396 0.491,-0.394C0.51,-0.391 0.529,-0.389 0.548,-0.387C0.569,-0.384 0.588,-0.382 0.607,-0.379C0.626,-0.376 0.642,-0.374 0.655,-0.373C0.692,-0.369 0.733,-0.367 0.777,-0.367C0.81,-0.367 0.846,-0.369 0.884,-0.372C0.922,-0.375 0.964,-0.38 1.011,-0.387C1.03,-0.39 1.053,-0.394 1.078,-0.401C1.103,-0.407 1.129,-0.415 1.154,-0.425C1.179,-0.435 1.202,-0.447 1.223,-0.46C1.243,-0.472 1.258,-0.487 1.268,-0.502C1.271,-0.507 1.273,-0.511 1.273,-0.515C1.273,-0.522 1.27,-0.527 1.263,-0.532C1.251,-0.543 1.231,-0.551 1.203,-0.556C1.195,-0.557 1.186,-0.558 1.176,-0.559C1.166,-0.56 1.156,-0.56 1.146,-0.56C1.123,-0.56 1.103,-0.558 1.088,-0.555C1.087,-0.554 1.085,-0.554 1.082,-0.554C1.078,-0.554 1.076,-0.556 1.076,-0.559C1.076,-0.562 1.078,-0.565 1.082,-0.568C1.102,-0.58 1.122,-0.588 1.141,-0.593C1.16,-0.597 1.183,-0.598 1.212,-0.597C1.239,-0.596 1.26,-0.588 1.277,-0.572C1.293,-0.556 1.301,-0.536 1.301,-0.512C1.301,-0.509 1.301,-0.506 1.301,-0.502C1.3,-0.499 1.3,-0.495 1.299,-0.492C1.291,-0.461 1.271,-0.433 1.238,-0.408C1.204,-0.383 1.164,-0.365 1.117,-0.354C1.082,-0.345 1.045,-0.339 1.006,-0.336C0.966,-0.333 0.925,-0.331 0.884,-0.331C0.864,-0.331 0.844,-0.332 0.823,-0.333C0.802,-0.334 0.782,-0.334 0.761,-0.335C0.739,-0.336 0.715,-0.338 0.688,-0.34C0.661,-0.341 0.633,-0.343 0.605,-0.344C0.566,-0.347 0.529,-0.35 0.492,-0.353C0.455,-0.355 0.423,-0.356 0.398,-0.356C0.355,-0.356 0.318,-0.353 0.287,-0.346C0.256,-0.339 0.23,-0.329 0.207,-0.315C0.154,-0.28 0.115,-0.22 0.092,-0.134C0.088,-0.121 0.084,-0.103 0.08,-0.081C0.076,-0.058 0.074,-0.037 0.074,-0.017C0.074,0 0.076,0.015 0.081,0.027C0.086,0.039 0.094,0.045 0.105,0.045C0.125,0.045 0.144,0.036 0.163,0.019C0.182,0.002 0.199,-0.02 0.215,-0.048C0.23,-0.075 0.243,-0.105 0.254,-0.137C0.264,-0.169 0.271,-0.2 0.275,-0.229C0.276,-0.235 0.276,-0.241 0.277,-0.246C0.277,-0.251 0.277,-0.255 0.277,-0.259C0.277,-0.273 0.275,-0.283 0.272,-0.29C0.267,-0.299 0.259,-0.304 0.248,-0.304C0.237,-0.304 0.231,-0.307 0.231,-0.314C0.231,-0.317 0.234,-0.321 0.24,-0.325C0.246,-0.328 0.254,-0.33 0.265,-0.33C0.286,-0.33 0.302,-0.322 0.313,-0.305C0.324,-0.288 0.33,-0.264 0.33,-0.233C0.33,-0.206 0.325,-0.177 0.316,-0.148C0.306,-0.118 0.293,-0.089 0.276,-0.062C0.259,-0.034 0.241,-0.009 0.22,0.013C0.199,0.036 0.178,0.054 0.157,0.067C0.135,0.08 0.114,0.087 0.094,0.087Z" style="fill:rgb(34,34,34);fill-rule:nonzero;"/>
                </g>
            </g>
        </g>
    </g>
</svg>
