<?xml version="1.0" encoding="UTF-8" standalone="no"?>
<!DOCTYPE svg PUBLIC "-//W3C//DTD SVG 1.1//EN" "http://www.w3.org/Graphics/SVG/1.1/DTD/svg11.dtd">
<svg width="100%" height="100%" viewBox="0 0 188 48" version="1.1" xmlns="http://www.w3.org/2000/svg" xmlns:xlink="http://www.w3.org/1999/xlink" xml:space="preserve" xmlns:serif="http://www.serif.com/" style="fill-rule:evenodd;clip-rule:evenodd;stroke-linejoin:round;stroke-miterlimit:2;">
    <g transform="matrix(1,0,0,1,-3207.72,-831.883)">
        <g transform="matrix(1,0,0,1.03284,1460.7,804.514)">
            <g transform="matrix(1,0,0,0.968202,56.767,-13.1278)">
                <path d="M1829.01,73.288C1827.97,73.288 1827.13,72.768 1826.49,71.728C1825.85,70.688 1825.53,69.314 1825.53,67.608C1825.53,67.128 1825.57,66.634 1825.65,66.128C1825.73,65.621 1825.83,65.114 1825.93,64.608C1826.52,62.394 1827.52,60.288 1828.93,58.288C1829.63,57.328 1830.41,56.461 1831.29,55.688C1833.21,54.008 1835.21,53.234 1837.29,53.368C1838.33,53.421 1839.31,53.481 1840.23,53.548C1841.15,53.614 1842.01,53.701 1842.81,53.808C1843.43,53.888 1844.12,53.974 1844.89,54.068C1845.67,54.161 1846.43,54.248 1847.17,54.328C1848,54.434 1848.79,54.541 1849.53,54.648C1850.28,54.754 1850.92,54.834 1851.45,54.888C1852.95,55.048 1854.57,55.128 1856.33,55.128C1857.67,55.128 1859.09,55.068 1860.61,54.948C1862.13,54.828 1863.83,54.621 1865.69,54.328C1866.47,54.221 1867.36,54.041 1868.37,53.788C1869.39,53.534 1870.4,53.208 1871.41,52.808C1872.43,52.408 1873.34,51.948 1874.15,51.428C1874.97,50.908 1875.57,50.341 1875.97,49.728C1876.11,49.541 1876.17,49.368 1876.17,49.208C1876.17,48.941 1876.04,48.714 1875.77,48.528C1875.29,48.101 1874.49,47.781 1873.37,47.568C1873.05,47.514 1872.69,47.474 1872.29,47.448C1871.89,47.421 1871.49,47.408 1871.09,47.408C1870.16,47.408 1869.39,47.474 1868.77,47.608C1868.72,47.634 1868.64,47.648 1868.53,47.648C1868.37,47.648 1868.29,47.581 1868.29,47.448C1868.29,47.314 1868.37,47.194 1868.53,47.088C1869.33,46.608 1870.11,46.281 1870.87,46.108C1871.63,45.934 1872.59,45.874 1873.73,45.928C1874.8,45.954 1875.66,46.288 1876.31,46.928C1876.97,47.568 1877.29,48.368 1877.29,49.328C1877.29,49.434 1877.29,49.561 1877.27,49.708C1877.26,49.854 1877.24,49.994 1877.21,50.128C1876.89,51.381 1876.07,52.501 1874.75,53.488C1873.43,54.474 1871.83,55.194 1869.93,55.648C1868.55,55.994 1867.06,56.234 1865.47,56.368C1863.89,56.501 1862.27,56.568 1860.61,56.568C1859.81,56.568 1859,56.548 1858.17,56.508C1857.35,56.468 1856.52,56.434 1855.69,56.408C1854.81,56.354 1853.83,56.294 1852.75,56.228C1851.67,56.161 1850.57,56.101 1849.45,56.048C1847.91,55.914 1846.39,55.801 1844.91,55.708C1843.43,55.614 1842.19,55.568 1841.17,55.568C1839.44,55.568 1837.96,55.701 1836.73,55.968C1835.51,56.234 1834.44,56.648 1833.53,57.208C1831.4,58.594 1829.87,61.008 1828.93,64.448C1828.77,64.981 1828.61,65.694 1828.45,66.588C1828.29,67.481 1828.21,68.328 1828.21,69.128C1828.21,69.821 1828.31,70.408 1828.49,70.888C1828.68,71.368 1829,71.608 1829.45,71.608C1830.25,71.608 1831.03,71.268 1831.77,70.588C1832.52,69.908 1833.21,69.014 1833.83,67.908C1834.46,66.801 1834.98,65.608 1835.39,64.328C1835.81,63.048 1836.09,61.821 1836.25,60.648C1836.28,60.408 1836.3,60.188 1836.31,59.988C1836.33,59.788 1836.33,59.608 1836.33,59.448C1836.33,58.888 1836.27,58.474 1836.13,58.208C1835.92,57.834 1835.6,57.648 1835.17,57.648C1834.72,57.648 1834.49,57.514 1834.49,57.248C1834.49,57.114 1834.61,56.974 1834.85,56.828C1835.09,56.681 1835.43,56.608 1835.85,56.608C1836.68,56.608 1837.32,56.948 1837.77,57.628C1838.23,58.308 1838.45,59.261 1838.45,60.488C1838.45,61.581 1838.26,62.721 1837.87,63.908C1837.49,65.094 1836.96,66.241 1836.29,67.348C1835.63,68.454 1834.88,69.454 1834.05,70.348C1833.23,71.241 1832.38,71.954 1831.51,72.488C1830.65,73.021 1829.81,73.288 1829.01,73.288Z" style="fill:rgb(34,34,34);"/>
                <text x="1691.45px" y="69.808px" style="font-family:'BirthstoneBounce-Medium', 'Birthstone Bounce';font-weight:500;font-size:40px;fill:rgb(34,34,34);">Wedding</text>
            </g>
        </g>
    </g>
</svg>
