<?xml version="1.0" encoding="UTF-8" standalone="no"?>
<!DOCTYPE svg PUBLIC "-//W3C//DTD SVG 1.1//EN" "http://www.w3.org/Graphics/SVG/1.1/DTD/svg11.dtd">
<svg width="100%" height="100%" viewBox="0 0 375 339" version="1.1" xmlns="http://www.w3.org/2000/svg" xmlns:xlink="http://www.w3.org/1999/xlink" xml:space="preserve" xmlns:serif="http://www.serif.com/" style="fill-rule:evenodd;clip-rule:evenodd;stroke-linejoin:round;stroke-miterlimit:2;">
    <g transform="matrix(1,0,0,1,-1.13687e-13,-267.838)">
        <g transform="matrix(0.850387,0,0,1,464.566,-13.3296)">
            <g transform="matrix(1.17593,0,0,1.05556,-546.299,-20.3602)">
                <rect x="0" y="285.657" width="375" height="320.759" style="fill:none;"/>
                <clipPath id="_clip1">
                    <rect x="0" y="285.657" width="375" height="320.759"/>
                </clipPath>
                <g clip-path="url(#_clip1)">
                    <g id="Šopek" transform="matrix(6.05064,0,0,5.69866,115.148,286.787)">
                        <g opacity="0.15">
                            <path d="M23,22C23,20.346 21.654,19 20,19C18.346,19 17,20.346 17,22C17,23.654 18.346,25 20,25C21.654,25 23,23.654 23,22ZM19,22C19,21.448 19.448,21 20,21C20.552,21 21,21.448 21,22C21,22.552 20.552,23 20,23C19.448,23 19,22.552 19,22Z" style="fill:rgb(223,194,170);fill-rule:nonzero;"/>
                            <path d="M55,22C55,20.359 54.007,18.945 52.59,18.33C53.091,16.971 52.797,15.383 51.707,14.293C50.617,13.203 49.029,12.907 47.67,13.41C47.055,11.993 45.641,11 44,11C43.507,11 43.038,11.099 42.601,11.263C42.184,10.402 41.469,9.712 40.589,9.33C41.09,7.971 40.796,6.383 39.706,5.293C38.616,4.203 37.029,3.907 35.67,4.41C35.055,2.993 33.641,2 32,2C30.359,2 28.945,2.993 28.33,4.41C26.969,3.907 25.382,4.203 24.293,5.293C23.203,6.383 22.909,7.971 23.41,9.33C22.53,9.712 21.815,10.402 21.398,11.263C20.962,11.099 20.493,11 20,11C18.359,11 16.945,11.993 16.33,13.41C14.969,12.907 13.382,13.203 12.293,14.293C11.203,15.383 10.909,16.971 11.41,18.33C9.993,18.945 9,20.359 9,22C9,23.641 9.993,25.055 11.41,25.67C10.909,27.029 11.203,28.617 12.293,29.707C13.382,30.796 14.969,31.091 16.33,30.59C16.815,31.708 17.801,32.553 19,32.864L19,35C19,37.134 19.511,39.175 20.479,41.017C20.071,41.09 19.673,41.23 19.319,41.47C18.492,42.028 18,42.957 18,43.954L18,50.046C18,51.043 18.492,51.972 19.318,52.53C20.143,53.089 21.188,53.202 22.114,52.832L25.153,51.616C25.061,52.071 25,52.532 25,53L25,61C25,61.553 25.447,62 26,62L38,62C38.553,62 39,61.553 39,61L39,53C39,52.532 38.939,52.071 38.847,51.616L41.886,52.832C42.812,53.202 43.857,53.089 44.682,52.53C45.508,51.972 46,51.043 46,50.046L46,43.954C46,42.957 45.508,42.028 44.682,41.47C44.328,41.23 43.93,41.09 43.522,41.017C44.489,39.175 45,37.134 45,35L45,32.864C46.199,32.553 47.185,31.708 47.67,30.59C49.029,31.091 50.617,30.796 51.707,29.707C52.797,28.617 53.091,27.029 52.59,25.67C54.007,25.055 55,23.641 55,22ZM25,11C25.404,11 25.77,10.757 25.924,10.383C26.079,10.009 25.993,9.579 25.707,9.293C24.994,8.58 24.994,7.42 25.707,6.707C26.42,5.994 27.58,5.994 28.293,6.707C28.58,6.994 29.01,7.081 29.383,6.924C29.757,6.77 30,6.404 30,6C30,4.897 30.897,4 32,4C33.103,4 34,4.897 34,6C34,6.404 34.243,6.77 34.617,6.924C34.991,7.08 35.421,6.994 35.707,6.707C36.42,5.994 37.58,5.994 38.293,6.707C39.006,7.42 39.006,8.58 38.293,9.293C38.007,9.579 37.921,10.009 38.076,10.383C38.23,10.757 38.596,11 39,11C39.914,11 40.678,11.62 40.916,12.458C40.679,12.745 40.48,13.064 40.33,13.41C38.969,12.907 37.382,13.203 36.293,14.293C35.203,15.383 34.909,16.971 35.41,18.33C35.083,18.472 34.785,18.671 34.505,18.896C33.818,18.34 32.95,18 32,18C31.05,18 30.182,18.34 29.495,18.896C29.215,18.671 28.917,18.472 28.59,18.33C29.091,16.971 28.797,15.383 27.707,14.293C26.617,13.203 25.029,12.907 23.67,13.41C23.52,13.064 23.321,12.745 23.084,12.458C23.322,11.62 24.086,11 25,11ZM38.076,26.383C38.23,26.757 38.596,27 39,27C40.103,27 41,27.897 41,29C41,30.103 40.103,31 39,31C38.596,31 38.23,31.243 38.076,31.617C37.921,31.991 38.007,32.421 38.293,32.707C39.006,33.42 39.006,34.58 38.293,35.293C37.58,36.006 36.42,36.006 35.707,35.293C35.421,35.007 34.992,34.921 34.617,35.076C34.243,35.23 34,35.596 34,36C34,37.103 33.103,38 32,38C30.897,38 30,37.103 30,36C30,35.596 29.757,35.23 29.383,35.076C29.259,35.024 29.129,35 29,35C28.74,35 28.484,35.102 28.293,35.293C27.58,36.006 26.42,36.006 25.707,35.293C24.994,34.58 24.994,33.42 25.707,32.707C25.993,32.421 26.079,31.991 25.924,31.617C25.77,31.243 25.404,31 25,31C23.897,31 23,30.103 23,29C23,27.897 23.897,27 25,27C25.404,27 25.77,26.757 25.924,26.383C26.079,26.009 25.993,25.579 25.707,25.293C24.994,24.58 24.994,23.42 25.707,22.707C26.42,21.994 27.58,21.994 28.293,22.707C28.58,22.994 29.01,23.081 29.383,22.924C29.757,22.77 30,22.404 30,22C30,20.897 30.897,20 32,20C33.103,20 34,20.897 34,22C34,22.404 34.243,22.77 34.617,22.924C34.991,23.08 35.421,22.994 35.707,22.707C36.42,21.994 37.58,21.994 38.293,22.707C39.006,23.42 39.006,24.58 38.293,25.293C38.007,25.579 37.921,26.009 38.076,26.383ZM41.507,32.109C41.948,32.462 42.455,32.717 43,32.858L43,35C43,37.416 42.231,39.693 40.785,41.608L35.684,43.649C34.769,42.643 33.464,42 32,42C30.536,42 29.231,42.643 28.315,43.649L23.214,41.608C21.769,39.693 21,37.416 21,35L21,32.858C21.545,32.716 22.051,32.462 22.493,32.109C22.772,32.334 23.078,32.526 23.41,32.67C22.909,34.029 23.203,35.617 24.293,36.707C25.382,37.796 26.969,38.092 28.33,37.59C28.945,39.007 30.359,40 32,40C33.641,40 35.055,39.007 35.67,37.59C37.029,38.092 38.617,37.796 39.707,36.707C40.797,35.617 41.091,34.029 40.59,32.67C40.922,32.526 41.229,32.334 41.507,32.109ZM29,47C29,45.346 30.346,44 32,44C33.654,44 35,45.346 35,47C35,48.654 33.654,50 32,50C30.346,50 29,48.654 29,47ZM18,29C18,28.596 17.757,28.23 17.383,28.076C17.009,27.92 16.579,28.007 16.293,28.293C15.58,29.006 14.42,29.006 13.707,28.293C12.994,27.58 12.994,26.42 13.707,25.707C13.993,25.421 14.079,24.991 13.924,24.617C13.77,24.243 13.404,24 13,24C11.897,24 11,23.103 11,22C11,20.897 11.897,20 13,20C13.404,20 13.77,19.757 13.924,19.383C14.079,19.009 13.993,18.579 13.707,18.293C12.994,17.58 12.994,16.42 13.707,15.707C14.42,14.994 15.58,14.994 16.293,15.707C16.58,15.993 17.01,16.08 17.383,15.924C17.757,15.77 18,15.404 18,15C18,13.897 18.897,13 20,13C21.103,13 22,13.897 22,15C22,15.404 22.243,15.77 22.617,15.924C22.991,16.08 23.42,15.993 23.707,15.707C24.42,14.994 25.58,14.994 26.293,15.707C27.006,16.42 27.006,17.58 26.293,18.293C26.007,18.579 25.921,19.009 26.076,19.383C26.23,19.757 26.596,20 27,20C27.402,20 27.788,20.127 28.116,20.348C26.805,19.949 25.326,20.259 24.293,21.293C23.203,22.383 22.909,23.971 23.41,25.33C21.993,25.945 21,27.359 21,29C21,29.533 21.114,30.037 21.304,30.502C20.942,30.816 20.483,31 20,31C18.897,31 18,30.103 18,29ZM21.372,50.975C21.059,51.1 20.719,51.064 20.439,50.874C20.16,50.686 20,50.383 20,50.046L20,43.954C20,43.617 20.16,43.314 20.439,43.126C20.718,42.937 21.058,42.9 21.372,43.025L27.289,45.392C27.115,45.9 27,46.435 27,47C27,47.565 27.115,48.1 27.289,48.607L21.372,50.975ZM37,53L37,60L27,60L27,53C27,52.172 27.212,51.36 27.601,50.637L28.315,50.351C29.231,51.357 30.536,52 32,52C33.464,52 34.769,51.357 35.685,50.351L36.399,50.637C36.788,51.36 37,52.172 37,53ZM44,43.954L44,50.046C44,50.383 43.84,50.686 43.561,50.874C43.282,51.063 42.942,51.1 42.628,50.975L36.711,48.608C36.885,48.1 37,47.565 37,47C37,46.435 36.885,45.9 36.711,45.393L42.628,43.026C42.941,42.901 43.281,42.937 43.561,43.127C43.84,43.314 44,43.617 44,43.954ZM51,24C50.596,24 50.23,24.243 50.076,24.617C49.921,24.991 50.007,25.421 50.293,25.707C51.006,26.42 51.006,27.58 50.293,28.293C49.58,29.006 48.42,29.006 47.707,28.293C47.422,28.007 46.992,27.92 46.617,28.076C46.243,28.23 46,28.596 46,29C46,30.103 45.103,31 44,31C43.517,31 43.058,30.816 42.696,30.502C42.886,30.037 43,29.533 43,29C43,27.359 42.007,25.945 40.59,25.33C41.091,23.971 40.797,22.383 39.707,21.293C38.673,20.259 37.194,19.949 35.884,20.348C36.212,20.127 36.598,20 37,20C37.404,20 37.77,19.757 37.924,19.383C38.079,19.009 37.993,18.579 37.707,18.293C36.994,17.58 36.994,16.42 37.707,15.707C38.42,14.994 39.58,14.994 40.293,15.707C40.58,15.993 41.009,16.08 41.383,15.924C41.757,15.77 42,15.404 42,15C42,13.897 42.897,13 44,13C45.103,13 46,13.897 46,15C46,15.404 46.243,15.77 46.617,15.924C46.991,16.08 47.421,15.993 47.707,15.707C48.42,14.994 49.58,14.994 50.293,15.707C51.006,16.42 51.006,17.58 50.293,18.293C50.007,18.579 49.921,19.009 50.076,19.383C50.23,19.757 50.596,20 51,20C52.103,20 53,20.897 53,22C53,23.103 52.103,24 51,24Z" style="fill:rgb(223,194,170);fill-rule:nonzero;"/>
                            <path d="M44,19C42.346,19 41,20.346 41,22C41,23.654 42.346,25 44,25C45.654,25 47,23.654 47,22C47,20.346 45.654,19 44,19ZM44,23C43.448,23 43,22.552 43,22C43,21.448 43.448,21 44,21C44.552,21 45,21.448 45,22C45,22.552 44.552,23 44,23Z" style="fill:rgb(223,194,170);fill-rule:nonzero;"/>
                            <path d="M32,26C30.346,26 29,27.346 29,29C29,30.654 30.346,32 32,32C33.654,32 35,30.654 35,29C35,27.346 33.654,26 32,26ZM32,30C31.448,30 31,29.552 31,29C31,28.448 31.448,28 32,28C32.552,28 33,28.448 33,29C33,29.552 32.552,30 32,30Z" style="fill:rgb(223,194,170);fill-rule:nonzero;"/>
                            <path d="M32,16C33.654,16 35,14.654 35,13C35,11.346 33.654,10 32,10C30.346,10 29,11.346 29,13C29,14.654 30.346,16 32,16ZM32,12C32.552,12 33,12.448 33,13C33,13.552 32.552,14 32,14C31.448,14 31,13.552 31,13C31,12.448 31.448,12 32,12Z" style="fill:rgb(223,194,170);fill-rule:nonzero;"/>
                        </g>
                    </g>
                </g>
            </g>
        </g>
    </g>
</svg>
