<?xml version="1.0" encoding="UTF-8" standalone="no"?>
<!DOCTYPE svg PUBLIC "-//W3C//DTD SVG 1.1//EN" "http://www.w3.org/Graphics/SVG/1.1/DTD/svg11.dtd">
<svg width="100%" height="100%" viewBox="0 0 375 336" version="1.1" xmlns="http://www.w3.org/2000/svg" xmlns:xlink="http://www.w3.org/1999/xlink" xml:space="preserve" xmlns:serif="http://www.serif.com/" style="fill-rule:evenodd;clip-rule:evenodd;stroke-linejoin:round;stroke-miterlimit:2;">
    <g transform="matrix(1,0,0,1,-1934.86,-71.8473)">
        <g transform="matrix(0.834641,0,0,7.68868,713.625,3.136)">
            <g transform="matrix(1.19812,0,0,0.130061,-855.009,-0.407872)">
                <rect x="1934.87" y="71.847" width="375" height="335.76" style="fill:none;"/>
                <clipPath id="_clip1">
                    <rect x="1934.87" y="71.847" width="375" height="335.76"/>
                </clipPath>
                <g clip-path="url(#_clip1)">
                    <g transform="matrix(1.84785,0,0,1.84785,1865.51,101.33)">
                        <g>
                            <rect x="51.349" y="100.462" width="40.999" height="4.595" style="fill:rgb(245,238,231);"/>
                            <path d="M204.095,74.995L178.284,40.749L178.359,40.685L178.227,40.685L178.112,40.531L177.915,40.685L142.051,40.685L146.857,27.3L103.027,17.795L97.953,2.215L37.349,19.286L45.802,51.285L9.967,79.765L9.967,81.3L0,111.7L9.967,104.431L9.967,201.88L132.081,201.88L132.081,201.587L178.266,160.505L178.266,101.046L204.095,74.995ZM198.025,74.58L157.129,115.833L132.728,82.485L174.88,43.873L198.025,74.58ZM166.538,45.276L128.888,79.765L127.99,79.765L140.394,45.276L166.538,45.276ZM123.109,79.765L62.913,79.765L84.927,18.57L140.764,30.684L123.109,79.765ZM94.95,7.838L97.827,16.663L81.959,13.22L58.059,79.665L42.953,22.486L94.95,7.838ZM47.284,56.875L53.329,79.765L18.757,79.765L47.284,56.875ZM127.479,197.284L14.559,197.284L14.559,84.361L127.479,84.361L127.479,197.284ZM173.674,158.446L132.081,195.433L132.081,89.378L156.596,122.89L173.674,105.679L173.674,158.446Z" style="fill:rgb(245,238,231);fill-rule:nonzero;"/>
                        </g>
                    </g>
                </g>
            </g>
        </g>
    </g>
</svg>
