<?xml version="1.0" encoding="UTF-8" standalone="no"?>
<!DOCTYPE svg PUBLIC "-//W3C//DTD SVG 1.1//EN" "http://www.w3.org/Graphics/SVG/1.1/DTD/svg11.dtd">
<svg width="100%" height="100%" viewBox="0 0 377 534" version="1.1" xmlns="http://www.w3.org/2000/svg" xmlns:xlink="http://www.w3.org/1999/xlink" xml:space="preserve" xmlns:serif="http://www.serif.com/" style="fill-rule:evenodd;clip-rule:evenodd;stroke-linecap:round;stroke-linejoin:round;stroke-miterlimit:10;">
    <g transform="matrix(1,0,0,1,-963.208,-68.1225)">
        <g transform="matrix(0.545525,0,0,18.5016,692.839,0)">
            <g id="BG-Wrap" transform="matrix(1.83786,0,0,0.0542479,-1272.84,-0.0135183)">
                <rect x="962.233" y="68.122" width="375.074" height="531.354" style="fill:none;"/>
                <clipPath id="_clip1">
                    <rect x="962.233" y="68.122" width="375.074" height="531.354"/>
                </clipPath>
                <g clip-path="url(#_clip1)">
                    <g transform="matrix(0.54411,0,0,18.0952,692.565,0.249196)">
                        <g opacity="0.2">
                            <g transform="matrix(1.8331,0,0,0.0550611,880.307,19.7481)">
                                <path d="M287.034,60.873L266.215,60.872L266.215,39.321C266.215,34.387 262.605,30.195 257.725,29.465C256.873,29.337 236.591,26.391 212.168,30.835C184.941,35.789 163.227,48.006 148.5,66.475C133.772,48.006 112.058,35.789 84.832,30.835C60.408,26.392 40.126,29.337 39.275,29.465C34.395,30.196 30.785,34.388 30.785,39.321L30.785,60.872L9.966,60.872C4.463,60.872 0,65.335 0,70.839L0,258.644C0,261.871 1.562,264.898 4.193,266.768C6.824,268.638 10.197,269.118 13.244,268.056C13.992,267.797 88.675,242.309 144.364,267.711C146.992,268.91 150.009,268.91 152.637,267.711C208.17,242.381 283.013,267.799 283.757,268.056C284.825,268.428 285.931,268.611 287.033,268.611C289.076,268.611 291.098,267.983 292.808,266.769C295.439,264.899 297.001,261.872 297.001,258.645L297.001,70.84C297,65.336 292.538,60.873 287.034,60.873ZM19.933,245.309L19.933,80.805L30.785,80.805L30.785,213.531C30.785,216.427 32.052,219.177 34.243,221.07C36.434,222.963 39.348,223.812 42.212,223.389C42.762,223.309 86.058,217.365 117.69,239.068C78.725,232.405 39.727,240.112 19.933,245.309ZM138.534,230.08C124.602,217.492 106.455,208.98 84.832,205.046C74.426,203.152 64.772,202.6 57.052,202.6C54.76,202.6 52.638,202.649 50.719,202.726L50.719,48.473L50.718,48.473C69.873,47.609 116.47,49.657 138.534,87.06L138.534,230.08ZM158.466,87.061C180.451,49.818 227.121,47.677 246.282,48.498L246.282,202.726C237.899,202.388 225.662,202.59 212.168,205.046C190.545,208.98 172.398,217.491 158.466,230.08L158.466,87.061ZM179.277,239.074C210.913,217.358 254.232,223.308 254.772,223.388C257.643,223.819 260.555,222.975 262.753,221.083C264.951,219.189 266.215,216.433 266.215,213.531L266.215,80.806L277.067,80.806L277.067,245.309C257.267,240.11 218.253,232.4 179.277,239.074Z" style="fill:rgb(223,194,170);fill-rule:nonzero;"/>
                            </g>
                        </g>
                    </g>
                    <g transform="matrix(14.9765,0,0,14.9605,822.621,6.40043)">
                        <g opacity="0.2">
                            <path d="M15,3L15,4.3C15,5.2 14.2,6 13.3,6L10.7,6C9.8,6 9,5.2 9,4.3L9,3" style="fill:none;fill-rule:nonzero;stroke:rgb(223,194,170);stroke-width:2px;"/>
                            <path d="M19,7L19,5C19,3.9 18.1,3 17,3L7,3C5.9,3 5,3.9 5,5L5,27C5,28.1 5.9,29 7,29L17,29C18.1,29 19,28.1 19,27L19,25" style="fill:none;fill-rule:nonzero;stroke:rgb(223,194,170);stroke-width:2px;"/>
                            <rect x="15" y="11" width="12" height="10" style="fill:none;stroke:rgb(223,194,170);stroke-width:2px;"/>
                            <path d="M16,20L20,16L22,18L23,17L26,20" style="fill:none;fill-rule:nonzero;stroke:rgb(223,194,170);stroke-width:2px;"/>
                            <path d="M9,25L15,25" style="fill:none;fill-rule:nonzero;stroke:rgb(223,194,170);stroke-width:2px;"/>
                        </g>
                    </g>
                </g>
            </g>
        </g>
    </g>
</svg>
