<?xml version="1.0" encoding="UTF-8" standalone="no"?>
<!DOCTYPE svg PUBLIC "-//W3C//DTD SVG 1.1//EN" "http://www.w3.org/Graphics/SVG/1.1/DTD/svg11.dtd">
<svg width="100%" height="100%" viewBox="0 0 375 544" version="1.1" xmlns="http://www.w3.org/2000/svg" xmlns:xlink="http://www.w3.org/1999/xlink" xml:space="preserve" xmlns:serif="http://www.serif.com/" style="fill-rule:evenodd;clip-rule:evenodd;stroke-linejoin:round;stroke-miterlimit:2;">
    <g transform="matrix(1,0,0,1,-468.908,-66.054)">
        <g transform="matrix(1,0,0,11.8038,468.291,0)">
            <g transform="matrix(1,0,0,0.0847183,-468.291,0)">
                <rect x="468.908" y="66.054" width="375" height="543.467" style="fill:none;"/>
                <clipPath id="_clip1">
                    <rect x="468.908" y="66.054" width="375" height="543.467"/>
                </clipPath>
                <g clip-path="url(#_clip1)">
                    <g id="Prstani" transform="matrix(7.60817,0,0,7.35745,577.217,135.791)">
                        <path d="M58.8,10.4C53.2,3.7 43.4,1.3 34.7,4.4L34.3,3.2C33.9,2.2 33.3,1.5 32.6,1.3C32.3,1.2 31.6,1.2 31,1.7L30.7,2C30.7,2 30.7,2.1 30.6,2.1L30.8,1.2L30.8,1C30.8,0.9 30.8,0.9 30.7,0.8C30.7,0.7 30.6,0.7 30.5,0.7L30.3,0.7L26.7,0.6C26.6,0.6 26.5,0.6 26.4,0.7L22,4.3C21.9,4.4 21.9,4.5 21.8,4.6L21.1,8.2C21.1,8.3 21.1,8.5 21.2,8.6C21.3,8.7 21.4,8.7 21.6,8.7L22.8,8.7C22.7,8.8 22.6,8.8 22.5,8.9L22.2,9.2C21.5,9.8 21.5,10.4 21.5,10.7C21.6,11.4 22.1,12.1 23.1,12.7L24.2,13.3C22.8,15.7 21.9,18.5 21.5,21.3L21.5,21.4C16.5,21.4 11.7,23.1 7.9,26.4C-1.1,34 -2.3,47.4 5.3,56.4C9.5,61.4 15.6,64 21.6,64C26.4,64 31.3,62.4 35.3,59C39.3,55.6 41.9,50.9 42.7,45.8L42.7,45.7C47.1,45.7 51.4,44.3 55.1,41.6C60,38 63,32.8 63.8,26.8C64.4,20.9 62.6,14.9 58.8,10.4ZM30.2,6.7L29.6,7.2L30,5.2L30.2,6.7ZM27.9,3.7L29.6,2.4L28.8,6.4L27.9,3.7ZM28,7L25.5,5.6L27.1,4.3L28,7ZM24.9,4.8L25,3.5L26.4,3.7L24.9,4.8ZM24.6,6.4L27.1,7.8L22.9,7.8L24.6,6.4ZM26.9,1.5L29,1.5L27.5,2.7L27.4,2.7L25.7,2.5L26.9,1.5ZM23.9,4L23.8,5.7L22.3,6.9L22.8,5L23.9,4ZM27.8,8.7L27.2,9.2L25.5,8.7L27.8,8.7ZM33.9,57.5C25.7,64.3 13.5,63.3 6.7,55.1C3.4,51.1 1.8,46.1 2.3,41C2.7,35.9 5.2,31.2 9.1,27.9C12.8,24.8 17.6,23.2 22.4,23.4C27.8,23.6 32.9,26.2 36.3,30.3C38.5,32.9 39.9,36 40.5,39.3C39.7,39.2 39,39.1 38.2,38.9C37.6,36.3 36.4,33.8 34.6,31.8C32.5,29.3 29.7,27.5 26.6,26.5C25.2,26.1 23.7,25.8 22.3,25.8L22.3,25.7C18,25.5 13.9,26.9 10.6,29.7C3.3,35.8 2.4,46.6 8.5,53.9C11.9,57.9 16.8,60 21.7,60C25.6,60 29.5,58.7 32.7,56C35.9,53.3 38,49.6 38.6,45.5C39.3,45.6 40,45.7 40.7,45.8C39.9,50.2 37.5,54.5 33.9,57.5ZM42.5,39.4C41.9,35.6 40.3,32 37.8,29C35,25.7 31.3,23.4 27.3,22.2L27.3,22.1C27.8,18.4 29.7,15 32.6,12.6C35.7,10 39.6,8.8 43.7,9.1C47.7,9.5 51.4,11.4 54,14.5C56.6,17.6 57.8,21.5 57.5,25.6C57.1,29.6 55.2,33.3 52.1,35.9C49.4,38.1 46,39.3 42.5,39.4ZM35.9,37.9C33.9,37 32.2,35.6 30.7,33.9C29.5,32.4 28.5,30.7 27.9,28.9C29.9,29.8 31.7,31.2 33.1,32.9C34.4,34.4 35.3,36.1 35.9,37.9ZM21.4,27.5C22,31.9 23.8,35.9 26.8,39C29.5,41.9 32.9,43.8 36.5,44.8L36.5,44.9C36,48.6 34.1,51.9 31.2,54.3C24.8,59.7 15.2,58.8 9.8,52.4C4.4,46 5.3,36.4 11.7,31C14.5,28.8 17.8,27.6 21.4,27.5ZM61.7,26.5C61,31.9 58.3,36.7 53.8,39.9C46,45.7 35,44.7 28.3,37.7C25.7,35 24,31.5 23.4,27.7C24.1,27.8 24.9,27.9 25.6,28.2C26.2,30.8 27.4,33.3 29.2,35.3C31.3,37.8 34,39.6 37.1,40.6L37.2,40.6C38.4,41 39.6,41.2 40.9,41.3L42.5,41.3C46.5,41.3 50.4,39.9 53.5,37.3C57,34.4 59.2,30.2 59.6,25.6C60,21 58.6,16.6 55.6,13.1C52.7,9.6 48.5,7.4 43.9,7C39.3,6.6 34.9,8 31.4,11C28.2,13.7 26.1,17.5 25.4,21.7C24.8,21.6 24.1,21.5 23.5,21.4C23.9,18.5 24.9,15.8 26.5,13.3C26.6,13.1 26.7,12.8 26.6,12.5C26.5,12.2 26.3,12.1 26,12L24.1,10.9C23.9,10.8 23.7,10.7 23.6,10.6L23.8,10.5C23.9,10.4 24.1,10.4 24.3,10.5C24.4,10.5 24.4,10.6 24.5,10.6L27.1,11.4C27.4,11.5 27.8,11.4 28,11.2L31.9,7.9C32.2,7.7 32.3,7.3 32.2,7L31.9,4.3C31.9,4.2 31.9,4.1 31.8,4.1C31.7,3.9 31.8,3.7 31.9,3.6L32.1,3.5C32.2,3.6 32.3,3.8 32.3,4L33.2,6C33.3,6.3 33.5,6.5 33.7,6.6C33.9,6.7 34.2,6.7 34.5,6.6C42.6,3.3 52,5.4 57.3,11.7C60.8,15.8 62.3,21.1 61.7,26.5Z" style="fill:rgb(223,194,170);fill-opacity:0.17;fill-rule:nonzero;"/>
                    </g>
                    <g id="Slika" transform="matrix(11.1579,0,0,20.5804,-12984.6,-12993.3)">
                        <g opacity="0.2">
                            <g transform="matrix(1,0,0,0.535614,1195.97,634.418)">
                                <path d="M19.235,1.75L4.765,1.75C3.103,1.75 1.75,3.102 1.75,4.765L1.75,19.236C1.75,20.898 3.102,22.251 4.765,22.251L19.236,22.251C20.898,22.251 22.251,20.899 22.251,19.236L22.251,4.765C22.25,3.102 20.898,1.75 19.235,1.75ZM21.044,19.235C21.044,20.232 20.233,21.044 19.235,21.044L4.765,21.044C3.768,21.044 2.956,20.233 2.956,19.235L2.956,17.054L7.822,11.647L14.395,17.622L18.03,14.593L21.045,17.105L21.045,19.235L21.044,19.235ZM21.044,15.536L18.029,13.024L14.428,16.024L7.737,9.94L2.956,15.252L2.956,4.765C2.956,3.768 3.767,2.956 4.765,2.956L19.236,2.956C20.233,2.956 21.045,3.767 21.045,4.765L21.045,15.536L21.044,15.536Z" style="fill:rgb(223,194,170);fill-rule:nonzero;"/>
                            </g>
                            <g transform="matrix(1,0,0,0.535614,1195.97,634.418)">
                                <path d="M16.221,10.794C17.883,10.794 19.236,9.442 19.236,7.779C19.236,6.116 17.884,4.764 16.221,4.764C14.559,4.764 13.206,6.116 13.206,7.779C13.206,9.442 14.558,10.794 16.221,10.794ZM16.221,5.971C17.218,5.971 18.03,6.782 18.03,7.78C18.03,8.778 17.219,9.589 16.221,9.589C15.223,9.589 14.412,8.778 14.412,7.78C14.412,6.782 15.223,5.971 16.221,5.971Z" style="fill:rgb(223,194,170);fill-rule:nonzero;"/>
                            </g>
                        </g>
                    </g>
                </g>
            </g>
        </g>
    </g>
</svg>
