<?xml version="1.0" encoding="UTF-8" standalone="no"?>
<!DOCTYPE svg PUBLIC "-//W3C//DTD SVG 1.1//EN" "http://www.w3.org/Graphics/SVG/1.1/DTD/svg11.dtd">
<svg width="100%" height="100%" viewBox="0 0 461 460" version="1.1" xmlns="http://www.w3.org/2000/svg" xmlns:xlink="http://www.w3.org/1999/xlink" xml:space="preserve" xmlns:serif="http://www.serif.com/" style="fill-rule:evenodd;clip-rule:evenodd;stroke-linejoin:round;stroke-miterlimit:2;">
    <g transform="matrix(1,0,0,1,-2372.83,-4574.2)">
        <g transform="matrix(0.545525,0,0,19.3134,2121.44,-2614.34)">
            <g transform="matrix(-1.8331,0,0,0.0517776,1358.31,370.998)">
                <path d="M122.7,23.32L124.4,45.19L107.7,59.44L129.1,64.61L137.5,84.86L149,66.18L170.8,64.43L156.6,47.72L161.7,26.4L141.4,34.75L122.7,23.32ZM464,32C455.223,32 448,39.223 448,48C448,56.777 455.223,64 464,64C472.777,64 480,56.777 480,48C480,39.223 472.777,32 464,32ZM239.8,42.5C231.023,42.5 223.8,49.723 223.8,58.5C223.8,67.277 231.023,74.5 239.8,74.5C248.577,74.5 255.8,67.277 255.8,58.5C255.8,49.723 248.577,42.5 239.8,42.5ZM423.7,49.34C414.5,51.08 406,56.52 397.8,63.62C390.2,70.15 383.1,78.28 377.1,87.07C358.3,90.08 339.5,97.74 326.9,108.2C310.8,121.4 296.5,144 288.7,167.3C281.3,170.4 274.3,174.1 268.6,178.1C253.1,189 245.1,209.9 239.2,228.1C233.3,246.4 230.4,262.4 230.4,262.4L248.2,265.6C248.2,265.6 250.9,250.6 256.3,233.7C261.8,216.8 271.1,198.4 279,192.9C280.3,192 282,191 283.5,190.1C282.9,195.8 282.9,201.5 283.8,206.9C285.6,218.3 291.8,229.2 302.8,235.1C310.6,239.3 319.4,238.3 326.8,235.3C334.2,232.2 340.8,227.1 346.5,221.1C352.2,215.1 356.9,208 359.7,200.5C362.5,193 363.5,184.5 359.9,176.6L359.8,176.6C355.9,168.2 348.4,162.8 340.4,160.5C332.4,158.2 323.8,158.3 315.2,159.6C313.7,159.8 312.3,160.3 310.8,160.6C318.2,144.8 328.8,129.9 338.3,122C344.5,116.9 354.9,112 366,108.4C364.6,112.2 363.5,116 363,119.9C361.4,130.4 363.7,141.8 372.1,149.6C378.2,155.2 386.4,156.1 393.6,154.9C400.7,153.7 407.6,150.5 413.8,146.4C420,142.2 425.5,137 429.4,130.9C433.3,124.8 435.9,117 433.4,109.2L433.4,109.1C430.1,99.03 421.9,92.11 412.8,88.83C408.9,87.43 404.8,86.64 400.6,86.17C403.5,82.91 406.5,79.86 409.5,77.25C416.3,71.41 423.2,67.75 427.1,67.02L423.7,49.34ZM174.8,84.39L159.6,93.95L194.1,149.2L137.7,152.1L164.2,209.9L180.6,202.3L165.1,168.7L225.7,165.6L174.8,84.39ZM391.2,103.7C397.3,103.6 402.7,104.3 406.7,105.8C412.1,107.7 414.8,110.1 416.2,114.6C416.6,115.7 416.4,117.9 414.3,121.2C412.1,124.6 408.2,128.4 403.8,131.4C399.3,134.4 394.3,136.5 390.6,137.1C386.8,137.8 385.1,137.1 384.3,136.4C380.8,133.2 379.8,129.2 380.8,122.5C381.6,117.1 384.1,110.6 387.8,103.9C389,103.9 390.1,103.7 391.2,103.7ZM94.99,123C86.213,123 78.99,130.223 78.99,139C78.99,147.777 86.213,155 94.99,155C94.993,155 94.997,155 95,155C103.777,155 111,147.777 111,139L111,139C111,130.223 103.777,123 95,123C94.997,123 94.993,123 94.99,123ZM451.1,160.2L436.7,176.8L414.9,175L426.3,193.8L417.8,214L439.2,209L455.8,223.3L457.7,201.4L476.4,190L456.2,181.5L451.1,160.2ZM327.6,176.7C330.5,176.8 333.2,177.2 335.3,177.8C339.6,179 341.9,180.8 343.5,184.2C344.4,186.1 344.5,189.6 342.8,194.2C341.1,198.9 337.6,204.3 333.4,208.8C329.2,213.3 324.1,216.9 319.9,218.6C315.7,220.3 313.1,220.2 311.4,219.3L311.3,219.3C305.5,216.1 302.7,211.5 301.6,204.1C300.6,197.8 301.3,189.8 303.4,181.2C308.3,179.5 313.2,178.1 317.9,177.4C321.4,176.9 324.6,176.7 327.6,176.7ZM125.2,228.6C118,228.4 113.5,230.1 110.7,232.9C107.9,235.7 106.2,240.2 106.4,247.4C106.6,254.7 109,264.3 113.6,275C122.8,296.5 140.9,322.4 165.2,346.8C189.5,371.1 215.5,389.1 237,398.3C247.6,402.9 257.2,405.3 264.5,405.5C271.8,405.8 276.2,404 279,401.2C281.8,398.4 283.6,394 283.3,386.7C283.1,379.4 280.7,369.8 276.1,359.1C266.9,337.7 248.9,311.7 224.6,287.4C200.3,263 174.3,245 152.8,235.8C142.1,231.2 132.5,228.8 125.2,228.6ZM357.2,259.9L324.2,313.9L295.1,286L282.7,299L327.8,342.3L361.6,287.1L400.3,319.4L489.6,281.2L482.6,264.6L403.3,298.6L357.2,259.9ZM93.43,272.6L75.79,330.5C117.2,379.6 165.5,407.2 217.9,425.2L239.5,418.6C236.4,417.5 233.1,416.2 229.8,414.8C205.4,404.4 178.1,385.2 152.5,359.5C126.8,333.8 107.6,306.5 97.16,282.1C95.75,278.9 94.51,275.7 93.43,272.6ZM69.61,350.8L55.6,396.8C84.49,423.8 114.6,436 146.2,447L189.6,433.8C146.4,416.2 105.6,390.5 69.61,350.8ZM368,352C359.223,352 352,359.223 352,368C352,376.777 359.223,384 368,384C376.777,384 384,376.777 384,368C384,359.223 376.777,352 368,352ZM49.81,415.9L29.52,482.5L117.8,455.6C95.03,446.5 72.02,434.9 49.81,415.9Z" style="fill:rgb(223,194,170);fill-opacity:0.2;fill-rule:nonzero;"/>
            </g>
        </g>
    </g>
</svg>
