<?xml version="1.0" encoding="UTF-8" standalone="no"?>
<!DOCTYPE svg PUBLIC "-//W3C//DTD SVG 1.1//EN" "http://www.w3.org/Graphics/SVG/1.1/DTD/svg11.dtd">
<svg width="100%" height="100%" viewBox="0 0 47 39" version="1.1" xmlns="http://www.w3.org/2000/svg" xmlns:xlink="http://www.w3.org/1999/xlink" xml:space="preserve" xmlns:serif="http://www.serif.com/" style="fill-rule:evenodd;clip-rule:evenodd;stroke-linejoin:round;stroke-miterlimit:2;">
    <g transform="matrix(1,0,0,1,-1001.26,-652.911)">
        <g transform="matrix(0.545525,0,0,18.5016,692.839,0)">
            <g id="Kamera" transform="matrix(3.63221,0,0,0.199952,-3645.18,-91.8046)">
                <g transform="matrix(1,0,0,0.535614,1158.98,634.419)">
                    <path d="M23.75,19L23.75,8C23.75,6.491 22.509,5.25 21,5.25L17.401,5.25C17.401,5.25 15.624,2.584 15.624,2.584C15.485,2.375 15.251,2.25 15,2.25L9,2.25C8.749,2.25 8.515,2.375 8.376,2.584L6.599,5.25C6.599,5.25 3,5.25 3,5.25C1.491,5.25 0.25,6.491 0.25,8C0.25,8 0.25,19 0.25,19C0.25,20.509 1.491,21.75 3,21.75C3,21.75 21,21.75 21,21.75C22.509,21.75 23.75,20.509 23.75,19ZM22.25,19C22.25,19.686 21.686,20.25 21,20.25L3,20.25C2.314,20.25 1.75,19.686 1.75,19L1.75,8C1.75,7.314 2.314,6.75 3,6.75C3,6.75 7,6.75 7,6.75C7.251,6.75 7.485,6.625 7.624,6.416L9.401,3.75C9.401,3.75 14.599,3.75 14.599,3.75C14.599,3.75 16.376,6.416 16.376,6.416C16.515,6.625 16.749,6.75 17,6.75L21,6.75C21.686,6.75 22.25,7.314 22.25,8L22.25,19Z"/>
                </g>
                <g transform="matrix(1,0,0,0.535614,1158.98,634.419)">
                    <path d="M12,8.25C9.378,8.25 7.25,10.378 7.25,13C7.25,15.622 9.378,17.75 12,17.75C14.622,17.75 16.75,15.622 16.75,13C16.75,10.378 14.622,8.25 12,8.25ZM12,9.75C13.794,9.75 15.25,11.206 15.25,13C15.25,14.794 13.794,16.25 12,16.25C10.206,16.25 8.75,14.794 8.75,13C8.75,11.206 10.206,9.75 12,9.75Z"/>
                </g>
            </g>
        </g>
    </g>
</svg>
