<?xml version="1.0" encoding="UTF-8" standalone="no"?>
<!DOCTYPE svg PUBLIC "-//W3C//DTD SVG 1.1//EN" "http://www.w3.org/Graphics/SVG/1.1/DTD/svg11.dtd">
<svg width="100%" height="100%" viewBox="0 0 61 52" version="1.1" xmlns="http://www.w3.org/2000/svg" xmlns:xlink="http://www.w3.org/1999/xlink" xml:space="preserve" xmlns:serif="http://www.serif.com/" style="fill-rule:evenodd;clip-rule:evenodd;stroke-linejoin:round;stroke-miterlimit:2;">
    <g transform="matrix(1,0,0,1,-994.644,-2658.99)">
        <g transform="matrix(0.204354,0,0,0.204354,994.644,2639.26)">
            <g transform="matrix(1,0,0,1,9.09495e-13,74.8406)">
                <path d="M222.312,58.625C218.026,58.625 213.746,58.996 209.519,59.732C194.092,36.102 167.837,21.719 139.273,21.719C103.551,21.719 72.097,44.208 60.269,77.282C26.591,79.937 0,108.191 0,142.539C0,178.635 29.366,208.001 65.461,208.001L105.061,208.001L105.061,265.178C105.061,270.757 109.584,275.28 115.163,275.28L181.836,275.28C187.415,275.28 191.938,270.757 191.938,265.178L191.938,208.001L222.311,208.001C263.495,208.001 296.999,174.497 296.999,133.313C296.999,92.129 263.496,58.625 222.312,58.625ZM181.838,155.066C176.258,155.066 171.735,159.59 171.735,165.168L171.735,255.076L125.266,255.076L125.266,165.168C125.266,159.589 120.743,155.066 115.164,155.066L106.216,155.066L148.501,112.781L190.786,155.066L181.838,155.066ZM222.312,187.797L191.939,187.797L191.939,175.27L215.174,175.27C219.26,175.27 222.944,172.809 224.508,169.034C226.071,165.259 225.206,160.914 222.318,158.024L155.645,91.351C151.699,87.407 145.304,87.407 141.358,91.351L74.685,158.024C71.796,160.914 70.932,165.258 72.495,169.034C74.059,172.808 77.742,175.27 81.829,175.27L105.064,175.27L105.064,187.797L65.464,187.797C40.509,187.797 20.207,167.494 20.207,142.539C20.207,117.584 40.509,97.282 65.464,97.282C66.1,97.282 66.731,97.306 67.362,97.331C72.142,97.548 76.376,94.366 77.562,89.748C84.784,61.59 110.163,41.923 139.276,41.923C162.961,41.923 184.558,54.955 195.64,75.934C197.87,80.156 202.75,82.237 207.342,80.931C212.231,79.536 217.268,78.83 222.315,78.83C252.358,78.83 276.799,103.271 276.799,133.314C276.799,163.357 252.355,187.797 222.312,187.797Z" style="fill-rule:nonzero;"/>
            </g>
        </g>
    </g>
</svg>
