<?xml version="1.0" encoding="UTF-8" standalone="no"?>
<!DOCTYPE svg PUBLIC "-//W3C//DTD SVG 1.1//EN" "http://www.w3.org/Graphics/SVG/1.1/DTD/svg11.dtd">
<svg width="100%" height="100%" viewBox="0 0 55 64" version="1.1" xmlns="http://www.w3.org/2000/svg" xmlns:xlink="http://www.w3.org/1999/xlink" xml:space="preserve" xmlns:serif="http://www.serif.com/" style="fill-rule:evenodd;clip-rule:evenodd;stroke-linejoin:round;stroke-miterlimit:2;">
    <g transform="matrix(1,0,0,1,-994.644,-4356.21)">
        <g transform="matrix(0.137761,0,0,0.137761,990.235,4356.21)">
            <path d="M428.155,193.62L391,164.205L391,15.5C391,6.953 384.047,0 375.5,0L87.5,0C78.953,0 72,6.953 72,15.5L72,164.205L34.845,193.62C33.048,195.042 32,197.208 32,199.5L32,439.5C32,452.458 42.542,463 55.5,463L407.5,463C420.458,463 431,452.458 431,439.5L431,199.5C431,197.208 429.952,195.042 428.155,193.62ZM416,439.5C416,439.661 415.985,439.819 415.976,439.978L273.898,327.5L416,215.003L416,439.5ZM47,439.5L47,215.003L189.102,327.5L47.024,439.978C47.015,439.819 47,439.661 47,439.5ZM261.604,318.102C243.879,332.134 219.121,332.135 201.396,318.102L172.215,295L290.785,295L261.604,318.102ZM201.4,336.895C201.629,336.713 201.863,336.541 202.094,336.364C211.31,341.208 221.401,343.641 231.499,343.641C241.594,343.641 251.687,341.206 260.902,336.364C261.135,336.542 261.371,336.713 261.603,336.898L401.943,448L61.057,448L201.4,336.895ZM411.417,199.5L391,215.663L391,183.336L411.417,199.5ZM87.5,15L375.5,15C375.776,15 376,15.224 376,15.5L376,227.538L309.732,280L153.268,280L87,227.538L87,15.5C87,15.224 87.224,15 87.5,15ZM72,215.663L51.583,199.5L72,183.336L72,215.663Z" style="fill-rule:nonzero;"/>
            <path d="M135.5,71L191.5,71C195.642,71 199,67.642 199,63.5C199,59.358 195.642,56 191.5,56L135.5,56C131.358,56 128,59.358 128,63.5C128,67.642 131.358,71 135.5,71Z" style="fill-rule:nonzero;"/>
            <path d="M135.5,111L223.5,111C227.642,111 231,107.642 231,103.5C231,99.358 227.642,96 223.5,96L135.5,96C131.358,96 128,99.358 128,103.5C128,107.642 131.358,111 135.5,111Z" style="fill-rule:nonzero;"/>
            <path d="M176,167.5C176,171.642 179.358,175 183.5,175L279.5,175C283.642,175 287,171.642 287,167.5C287,163.358 283.642,160 279.5,160L183.5,160C179.358,160 176,163.358 176,167.5Z" style="fill-rule:nonzero;"/>
            <path d="M135.5,215L327.5,215C331.642,215 335,211.642 335,207.5C335,203.358 331.642,200 327.5,200L135.5,200C131.358,200 128,203.358 128,207.5C128,211.642 131.358,215 135.5,215Z" style="fill-rule:nonzero;"/>
            <path d="M135.5,255L327.5,255C331.642,255 335,251.642 335,247.5C335,243.358 331.642,240 327.5,240L135.5,240C131.358,240 128,243.358 128,247.5C128,251.642 131.358,255 135.5,255Z" style="fill-rule:nonzero;"/>
        </g>
    </g>
</svg>
