<?xml version="1.0" encoding="UTF-8" standalone="no"?>
<!DOCTYPE svg PUBLIC "-//W3C//DTD SVG 1.1//EN" "http://www.w3.org/Graphics/SVG/1.1/DTD/svg11.dtd">
<svg width="100%" height="100%" viewBox="0 0 40 43" version="1.1" xmlns="http://www.w3.org/2000/svg" xmlns:xlink="http://www.w3.org/1999/xlink" xml:space="preserve" xmlns:serif="http://www.serif.com/" style="fill-rule:evenodd;clip-rule:evenodd;stroke-linejoin:round;stroke-miterlimit:2;">
    <g transform="matrix(1,0,0,1,-994.644,-2115.59)">
        <g transform="matrix(0.545525,0,0,18.5016,692.839,0)">
            <g id="Nota" transform="matrix(4.30187,0,0,0.115284,540.331,114.116)">
                <path d="M19.698,2.148C19.888,2.29 20,2.513 20,2.75L20,16.25C20,16.277 19.999,16.303 19.996,16.329C19.999,16.386 20,16.443 20,16.5C20,18.433 18.433,20 16.5,20C14.567,20 13,18.433 13,16.5C13,14.567 14.567,13 16.5,13C17.244,13 17.933,13.232 18.5,13.627L18.5,7.758L10,10.308L10,18.25C10,18.277 9.999,18.303 9.996,18.329C9.999,18.386 10,18.443 10,18.5C10,20.433 8.433,22 6.5,22C4.567,22 3,20.433 3,18.5C3,16.567 4.567,15 6.5,15C7.244,15 7.933,15.232 8.5,15.627L8.5,5.75C8.5,5.419 8.717,5.127 9.034,5.032L19.035,2.032C19.262,1.964 19.508,2.007 19.698,2.148ZM10,8.742L18.5,6.192L18.5,3.758L10,6.308L10,8.742ZM6.5,16.5C5.395,16.5 4.5,17.395 4.5,18.5C4.5,19.605 5.395,20.5 6.5,20.5C7.605,20.5 8.5,19.605 8.5,18.5C8.5,17.395 7.605,16.5 6.5,16.5ZM14.5,16.5C14.5,17.605 15.395,18.5 16.5,18.5C17.605,18.5 18.5,17.605 18.5,16.5C18.5,15.395 17.605,14.5 16.5,14.5C15.395,14.5 14.5,15.395 14.5,16.5Z" style="fill-rule:nonzero;"/>
            </g>
        </g>
    </g>
</svg>
