<?xml version="1.0" encoding="UTF-8" standalone="no"?>
<!DOCTYPE svg PUBLIC "-//W3C//DTD SVG 1.1//EN" "http://www.w3.org/Graphics/SVG/1.1/DTD/svg11.dtd">
<svg width="100%" height="100%" viewBox="0 0 40 40" version="1.1" xmlns="http://www.w3.org/2000/svg" xmlns:xlink="http://www.w3.org/1999/xlink" xml:space="preserve" xmlns:serif="http://www.serif.com/" style="fill-rule:evenodd;clip-rule:evenodd;stroke-linejoin:round;stroke-miterlimit:2;">
    <g transform="matrix(1,0,0,1,-493.907,-1665.84)">
        <g transform="matrix(1,0,0,9.75055,468.291,534.397)">
            <g id="Slika" transform="matrix(1.93042,0,0,0.365168,-2286.48,-115.973)">
                <g transform="matrix(1,0,0,0.535614,1195.97,634.418)">
                    <path d="M19.235,1.75L4.765,1.75C3.103,1.75 1.75,3.102 1.75,4.765L1.75,19.236C1.75,20.898 3.102,22.251 4.765,22.251L19.236,22.251C20.898,22.251 22.251,20.899 22.251,19.236L22.251,4.765C22.25,3.102 20.898,1.75 19.235,1.75ZM21.044,19.235C21.044,20.232 20.233,21.044 19.235,21.044L4.765,21.044C3.768,21.044 2.956,20.233 2.956,19.235L2.956,17.054L7.822,11.647L14.395,17.622L18.03,14.593L21.045,17.105L21.045,19.235L21.044,19.235ZM21.044,15.536L18.029,13.024L14.428,16.024L7.737,9.94L2.956,15.252L2.956,4.765C2.956,3.768 3.767,2.956 4.765,2.956L19.236,2.956C20.233,2.956 21.045,3.767 21.045,4.765L21.045,15.536L21.044,15.536Z" style="fill:rgb(109,109,109);fill-rule:nonzero;"/>
                </g>
                <g transform="matrix(1,0,0,0.535614,1195.97,634.418)">
                    <path d="M16.221,10.794C17.883,10.794 19.236,9.442 19.236,7.779C19.236,6.116 17.884,4.764 16.221,4.764C14.559,4.764 13.206,6.116 13.206,7.779C13.206,9.442 14.558,10.794 16.221,10.794ZM16.221,5.971C17.218,5.971 18.03,6.782 18.03,7.78C18.03,8.778 17.219,9.589 16.221,9.589C15.223,9.589 14.412,8.778 14.412,7.78C14.412,6.782 15.223,5.971 16.221,5.971Z" style="fill:rgb(109,109,109);fill-rule:nonzero;"/>
                </g>
            </g>
        </g>
    </g>
</svg>
