<?xml version="1.0" encoding="UTF-8" standalone="no"?>
<!DOCTYPE svg PUBLIC "-//W3C//DTD SVG 1.1//EN" "http://www.w3.org/Graphics/SVG/1.1/DTD/svg11.dtd">
<svg width="100%" height="100%" viewBox="0 0 66 66" version="1.1" xmlns="http://www.w3.org/2000/svg" xmlns:xlink="http://www.w3.org/1999/xlink" xml:space="preserve" xmlns:serif="http://www.serif.com/" style="fill-rule:evenodd;clip-rule:evenodd;stroke-linejoin:round;stroke-miterlimit:2;">
    <g transform="matrix(1,0,0,1,-994.644,-3749.34)">
        <g transform="matrix(0.146953,0,0,0.146953,692.887,3035.21)">
            <g id="qr-code-svgrepo-com--1-.svg" serif:id="qr-code-svgrepo-com (1).svg" transform="matrix(7.01046,0,0,7.01046,2277.76,5083.9)">
                <g transform="matrix(1,0,0,1,-32,-32)">
                    <g>
                        <rect x="38" y="23" width="2" height="5"/>
                        <rect x="42" y="23" width="2" height="5"/>
                        <rect x="38" y="30" width="2" height="2"/>
                        <rect x="42" y="30" width="2" height="2"/>
                        <rect x="31" y="34" width="2" height="2"/>
                        <rect x="26" y="54" width="2" height="2"/>
                        <rect x="42" y="34" width="2" height="2"/>
                        <rect x="38" y="38" width="2" height="2"/>
                        <rect x="42" y="38" width="2" height="2"/>
                        <path d="M2,2L5,2L5,0L1,0C0.448,0 0,0.448 0,1L0,5L2,5L2,2Z" style="fill-rule:nonzero;"/>
                        <path d="M63,0L59,0L59,2L62,2L62,5L64,5L64,1C64,0.448 63.552,0 63,0Z" style="fill-rule:nonzero;"/>
                        <path d="M2,59L0,59L0,63C0,63.552 0.448,64 1,64L5,64L5,62L2,62L2,59Z" style="fill-rule:nonzero;"/>
                        <path d="M62,62L59,62L59,64L63,64C63.552,64 64,63.552 64,63L64,59L62,59L62,62Z" style="fill-rule:nonzero;"/>
                        <path d="M4,5L4,17C4,17.552 4.448,18 5,18L17,18C17.552,18 18,17.552 18,17L18,5C18,4.448 17.552,4 17,4L5,4C4.448,4 4,4.448 4,5ZM6,6L16,6L16,16L6,16L6,6Z" style="fill-rule:nonzero;"/>
                        <path d="M13,8L9,8C8.448,8 8,8.448 8,9L8,13C8,13.552 8.448,14 9,14L13,14C13.552,14 14,13.552 14,13L14,9C14,8.448 13.552,8 13,8ZM12,12L10,12L10,10L12,10L12,12Z" style="fill-rule:nonzero;"/>
                        <path d="M47,18L59,18C59.552,18 60,17.552 60,17L60,5C60,4.448 59.552,4 59,4L47,4C46.448,4 46,4.448 46,5L46,17C46,17.552 46.448,18 47,18ZM48,6L58,6L58,16L48,16L48,6Z" style="fill-rule:nonzero;"/>
                        <path d="M55,8L51,8C50.448,8 50,8.448 50,9L50,13C50,13.552 50.448,14 51,14L55,14C55.552,14 56,13.552 56,13L56,9C56,8.448 55.552,8 55,8ZM54,12L52,12L52,10L54,10L54,12Z" style="fill-rule:nonzero;"/>
                        <path d="M17,46L5,46C4.448,46 4,46.448 4,47L4,59C4,59.552 4.448,60 5,60L17,60C17.552,60 18,59.552 18,59L18,47C18,46.448 17.552,46 17,46ZM16,58L6,58L6,48L16,48L16,58Z" style="fill-rule:nonzero;"/>
                        <path d="M9,56L13,56C13.552,56 14,55.552 14,55L14,51C14,50.448 13.552,50 13,50L9,50C8.448,50 8,50.448 8,51L8,55C8,55.552 8.448,56 9,56ZM10,52L12,52L12,54L10,54L10,52Z" style="fill-rule:nonzero;"/>
                        <path d="M44,19L37,19L37,7L35,7L35,20C35,20.552 35.448,21 36,21L44,21L44,19Z" style="fill-rule:nonzero;"/>
                        <rect x="22" y="12" width="7" height="2"/>
                        <rect x="26" y="8" width="7" height="2"/>
                        <rect x="4" y="19" width="2" height="9"/>
                        <path d="M18,25L8,25L8,27L17,27L17,31L19,31L19,26C19,25.448 18.552,25 18,25Z" style="fill-rule:nonzero;"/>
                        <rect x="9" y="20" width="2" height="2"/>
                        <rect x="21" y="18" width="2" height="8"/>
                        <rect x="21" y="28" width="9" height="2"/>
                        <path d="M61,29L59,29L59,39L56,39L56,41L60,41C60.552,41 61,40.552 61,40L61,29Z" style="fill-rule:nonzero;"/>
                        <rect x="26" y="18" width="2" height="2"/>
                        <rect x="4" y="33" width="2" height="8"/>
                        <rect x="4" y="42" width="9" height="2"/>
                        <path d="M50,28L52,28L52,24C52,23.448 51.552,23 51,23L46,23L46,25L50,25L50,28Z" style="fill-rule:nonzero;"/>
                        <rect x="9" y="33" width="2" height="2"/>
                        <rect x="20" y="32" width="2" height="8"/>
                        <rect x="20" y="42" width="9" height="2"/>
                        <rect x="8" y="38" width="9" height="2"/>
                        <rect x="21" y="52" width="2" height="4"/>
                        <rect x="20" y="48" width="9" height="2"/>
                        <path d="M36,44L36,39C36,38.448 35.552,38 35,38L25,38L25,40L34,40L34,44L36,44Z" style="fill-rule:nonzero;"/>
                        <rect x="26" y="32" width="2" height="2"/>
                        <rect x="15" y="34" width="2" height="2"/>
                        <rect x="59" y="53" width="2" height="7"/>
                        <rect x="54" y="58" width="3" height="2"/>
                        <rect x="54" y="52" width="2" height="4"/>
                        <path d="M61,44C61,43.448 60.552,43 60,43L49,43L49,45L59,45L59,51L61,51L61,44Z" style="fill-rule:nonzero;"/>
                        <path d="M48,56L48,51C48,50.448 47.552,50 47,50L36,50L36,52L46,52L46,56L48,56Z" style="fill-rule:nonzero;"/>
                        <rect x="50" y="47" width="7" height="2"/>
                        <rect x="20" y="58" width="7" height="2"/>
                        <rect x="30" y="51" width="2" height="9"/>
                        <rect x="32" y="46" width="4" height="2"/>
                        <path d="M47,36L52,36L52,34L48,34L48,28L46,28L46,35C46,35.552 46.448,36 47,36Z" style="fill-rule:nonzero;"/>
                        <rect x="50" y="30" width="5" height="2"/>
                        <rect x="54" y="20" width="3" height="2"/>
                        <rect x="59" y="20" width="2" height="5"/>
                        <rect x="54" y="25" width="2" height="2"/>
                        <path d="M39,17L43,17C43.552,17 44,16.552 44,16L44,3L42,3L42,15L39,15L39,17Z" style="fill-rule:nonzero;"/>
                        <path d="M24,5L39,5L39,3L23,3C22.448,3 22,3.448 22,4L22,9L24,9L24,5Z" style="fill-rule:nonzero;"/>
                        <path d="M25,24L32,24C32.552,24 33,23.552 33,23L33,15L31,15L31,22L25,22L25,24Z" style="fill-rule:nonzero;"/>
                        <rect x="34" y="23" width="2" height="4"/>
                        <rect x="36" y="54" width="7" height="2"/>
                        <rect x="36" y="58" width="9" height="2"/>
                        <path d="M50,58L48,58L48,60L51,60C51.552,60 52,59.552 52,59L52,51L50,51L50,58Z" style="fill-rule:nonzero;"/>
                        <rect x="16" y="42" width="2" height="2"/>
                        <rect x="39" y="42" width="4" height="2"/>
                        <rect x="46" y="38" width="2" height="3"/>
                        <rect x="45" y="43" width="2" height="2"/>
                        <rect x="39" y="46" width="3" height="2"/>
                        <rect x="50" y="38" width="2" height="2"/>
                        <rect x="54" y="34" width="3" height="2"/>
                        <rect x="35" y="34" width="5" height="2"/>
                        <rect x="34" y="29" width="2" height="3"/>
                    </g>
                </g>
            </g>
        </g>
    </g>
</svg>
