<?xml version="1.0" encoding="UTF-8" standalone="no"?>
<!DOCTYPE svg PUBLIC "-//W3C//DTD SVG 1.1//EN" "http://www.w3.org/Graphics/SVG/1.1/DTD/svg11.dtd">
<svg width="100%" height="100%" viewBox="0 0 26 26" version="1.1" xmlns="http://www.w3.org/2000/svg" xmlns:xlink="http://www.w3.org/1999/xlink" xml:space="preserve" xmlns:serif="http://www.serif.com/" style="fill-rule:evenodd;clip-rule:evenodd;stroke-linejoin:round;stroke-miterlimit:2;">
    <g transform="matrix(1,0,0,1,-2252.19,-687.347)">
        <g transform="matrix(0.834641,0,0,7.68868,713.625,3.136)">
            <g id="question-mark-svgrepo-com.svg" transform="matrix(0.691596,0,0,0.0750759,1858.71,90.6525)">
                <g opacity="0.3">
                    <g transform="matrix(1,0,0,1,-22.1505,-22.151)">
                        <g>
                            <path d="M22.15,0C9.918,0 0,9.917 0,22.15C0,34.384 9.918,44.301 22.15,44.301C34.383,44.301 44.301,34.384 44.301,22.15C44.301,9.917 34.384,0 22.15,0ZM22.063,34.794C20.414,34.794 19.292,33.58 19.292,31.961C19.292,30.311 20.443,29.128 22.063,29.128C23.744,29.128 24.834,30.311 24.865,31.961C24.864,33.58 23.744,34.794 22.063,34.794ZM26.483,21.246C25.088,22.789 24.554,24.26 24.554,25.954L24.554,26.073C24.554,26.886 23.895,27.547 23.08,27.547L21.005,27.547C20.202,27.547 19.548,26.903 19.532,26.103L19.522,25.591C19.409,23.67 20.049,21.742 21.744,19.708C22.949,18.277 23.929,17.087 23.929,15.806C23.929,14.488 23.064,13.63 21.18,13.555C20.438,13.555 19.604,13.718 18.844,13.991C18.464,14.128 18.049,14.104 17.689,13.926C17.33,13.747 17.058,13.43 16.937,13.046L16.545,11.793C16.316,11.06 16.689,10.276 17.401,9.989C18.728,9.454 20.48,9.042 22.46,9.042C27.432,9.042 29.689,11.792 29.689,14.919C29.69,17.78 27.917,19.664 26.483,21.246Z" style="fill-rule:nonzero;"/>
                        </g>
                    </g>
                </g>
            </g>
        </g>
    </g>
</svg>
