<?xml version="1.0" encoding="UTF-8" standalone="no"?>
<!DOCTYPE svg PUBLIC "-//W3C//DTD SVG 1.1//EN" "http://www.w3.org/Graphics/SVG/1.1/DTD/svg11.dtd">
<svg width="100%" height="100%" viewBox="0 0 56 57" version="1.1" xmlns="http://www.w3.org/2000/svg" xmlns:xlink="http://www.w3.org/1999/xlink" xml:space="preserve" xmlns:serif="http://www.serif.com/" style="fill-rule:evenodd;clip-rule:evenodd;stroke-linejoin:round;stroke-miterlimit:2;">
    <g transform="matrix(1,0,0,1,-994.644,-3185.69)">
        <g transform="matrix(0.146953,0,0,0.146953,692.887,3035.21)">
            <g transform="matrix(0.749235,0,0,0.749235,514.927,256.783)">
                <g id="g2623" transform="matrix(1,0,0,1,2304,1327.51)">
                    <path id="path2621" d="M0,-95.02C-11.502,-95.02 -20.86,-104.377 -20.86,-115.88C-20.86,-127.387 -11.502,-136.75 0,-136.75C11.508,-136.75 20.87,-127.387 20.87,-115.88C20.87,-104.377 11.508,-95.02 0,-95.02M0,41.74C-11.502,41.74 -20.86,32.377 -20.86,20.87C-20.86,9.363 -11.502,0 0,0C11.508,0 20.87,9.363 20.87,20.87C20.87,32.377 11.508,41.74 0,41.74M0,178.49C-11.502,178.49 -20.86,169.132 -20.86,157.63C-20.86,146.123 -11.502,136.759 0,136.759C11.508,136.759 20.87,146.123 20.87,157.63C20.87,169.132 11.508,178.49 0,178.49M0,-273.51C11.508,-273.51 20.87,-264.148 20.87,-252.64C20.87,-241.132 11.508,-231.77 0,-231.77C-11.502,-231.77 -20.86,-241.132 -20.86,-252.64C-20.86,-264.148 -11.502,-273.51 0,-273.51M50.87,-252.64C50.87,-280.69 28.05,-303.51 0,-303.51C-28.044,-303.51 -50.86,-280.69 -50.86,-252.64C-50.86,-229.811 -35.746,-210.448 -15,-204.03L-15,-164.49C-35.746,-158.073 -50.86,-138.709 -50.86,-115.88C-50.86,-93.055 -35.746,-73.696 -15,-67.28L-15,-27.74C-35.746,-21.323 -50.86,-1.959 -50.86,20.87C-50.86,43.699 -35.746,63.062 -15,69.48L-15,109.02C-35.746,115.437 -50.86,134.8 -50.86,157.63C-50.86,185.674 -28.044,208.49 0,208.49C28.05,208.49 50.87,185.674 50.87,157.63C50.87,134.799 35.751,115.435 15,109.019L15,69.48C35.751,63.064 50.87,43.701 50.87,20.87C50.87,-1.961 35.751,-21.325 15,-27.741L15,-67.279C35.751,-73.694 50.87,-93.054 50.87,-115.88C50.87,-138.711 35.751,-158.075 15,-164.491L15,-204.03C35.751,-210.446 50.87,-229.809 50.87,-252.64" style="fill-rule:nonzero;"/>
                </g>
                <g id="g2627" transform="matrix(1,0,0,1,2188.22,1064.27)">
                    <path id="path2625" d="M0,21.206C-2.836,24.042 -6.605,25.603 -10.614,25.603L-89.794,25.603C-93.802,25.603 -97.564,24.046 -100.407,21.198C-103.236,18.374 -104.794,14.61 -104.794,10.603C-104.794,6.597 -103.236,2.833 -100.389,-0.009C-97.564,-2.839 -93.802,-4.397 -89.794,-4.397L-10.614,-4.397C-6.605,-4.397 -2.836,-2.835 -0.001,-0.001C2.787,2.788 4.386,6.653 4.386,10.603C4.386,14.554 2.787,18.419 -0,21.206M-10.614,-34.397L-89.794,-34.397C-101.825,-34.397 -113.127,-29.712 -121.602,-21.222C-130.109,-12.73 -134.794,-1.427 -134.794,10.603C-134.794,22.634 -130.109,33.936 -121.62,42.411C-113.127,50.919 -101.825,55.603 -89.794,55.603L-10.614,55.603C1.407,55.603 12.71,50.922 21.213,42.419C29.708,33.925 34.386,22.625 34.386,10.603C34.386,-1.418 29.708,-12.718 21.212,-21.214C12.71,-29.715 1.407,-34.397 -10.614,-34.397" style="fill-rule:nonzero;"/>
                </g>
                <g id="g2631" transform="matrix(1,0,0,1,2188.22,1337.78)">
                    <path id="path2629" d="M0,21.208C-2.835,24.043 -6.605,25.604 -10.614,25.604L-89.794,25.604C-93.802,25.604 -97.564,24.047 -100.407,21.199C-103.236,18.375 -104.794,14.612 -104.794,10.604C-104.794,6.598 -103.236,2.834 -100.389,-0.008C-97.564,-2.838 -93.802,-4.396 -89.794,-4.396L-10.614,-4.396C-6.605,-4.396 -2.836,-2.834 -0.001,-0C2.787,2.789 4.386,6.654 4.386,10.604C4.386,14.613 2.828,18.38 -0,21.208M-10.614,-34.396L-89.794,-34.396C-101.825,-34.396 -113.127,-29.711 -121.602,-21.221C-130.109,-12.729 -134.794,-1.426 -134.794,10.604C-134.794,22.635 -130.109,33.937 -121.62,42.412C-113.128,50.92 -101.825,55.604 -89.794,55.604L-10.614,55.604C1.408,55.604 12.71,50.923 21.213,42.421C29.708,33.926 34.386,22.627 34.386,10.604C34.386,-1.417 29.708,-12.717 21.212,-21.213C12.71,-29.714 1.407,-34.396 -10.614,-34.396" style="fill-rule:nonzero;"/>
                </g>
                <g id="g2635" transform="matrix(1,0,0,1,2419.77,1222.23)">
                    <path id="path2633" d="M0,-21.208C2.799,-24.001 6.667,-25.604 10.612,-25.604L89.803,-25.604C93.812,-25.604 97.577,-24.046 100.406,-21.217C103.241,-18.382 104.803,-14.612 104.803,-10.604C104.803,-6.601 103.241,-2.835 100.406,0C97.612,2.794 93.747,4.396 89.803,4.396L10.612,4.396C6.673,4.396 2.805,2.79 0.019,0.01C-2.781,-2.796 -4.388,-6.664 -4.388,-10.604C-4.388,-14.607 -2.823,-18.38 0,-21.208M10.612,34.396L89.803,34.396C101.818,34.396 113.117,29.715 121.62,21.213C130.121,12.711 134.803,1.411 134.803,-10.604C134.803,-22.626 130.121,-33.929 121.619,-42.43C113.124,-50.925 101.825,-55.604 89.803,-55.604L10.612,-55.604C-1.395,-55.604 -12.691,-50.929 -21.214,-42.421C-29.709,-33.91 -34.388,-22.61 -34.388,-10.604C-34.388,1.397 -29.709,12.693 -21.194,21.224C-12.685,29.718 -1.389,34.396 10.612,34.396" style="fill-rule:nonzero;"/>
                </g>
                <g id="g2639" transform="matrix(1,0,0,1,2520.18,1474.54)">
                    <path id="path2637" d="M0,21.208C-2.794,24.001 -6.659,25.604 -10.604,25.604L-89.794,25.604C-93.733,25.604 -97.602,23.998 -100.388,21.217C-103.188,18.411 -104.794,14.544 -104.794,10.604C-104.794,6.601 -103.229,2.827 -100.407,0C-97.608,-2.794 -93.74,-4.396 -89.794,-4.396L-10.604,-4.396C-6.652,-4.396 -2.788,-2.797 -0.001,-0.011C2.835,2.825 4.396,6.595 4.396,10.604C4.396,14.606 2.835,18.372 0,21.208M-10.604,-34.396L-89.794,-34.396C-101.801,-34.396 -113.097,-29.722 -121.62,-21.214C-130.115,-12.702 -134.794,-1.403 -134.794,10.604C-134.794,22.604 -130.115,33.901 -121.602,42.43C-113.091,50.925 -101.795,55.604 -89.794,55.604L-10.604,55.604C1.412,55.604 12.712,50.922 21.213,42.421C29.715,33.919 34.396,22.62 34.396,10.604C34.396,-1.417 29.715,-12.72 21.213,-21.224C12.718,-29.718 1.418,-34.396 -10.604,-34.396" style="fill-rule:nonzero;"/>
                </g>
                <g id="g2643" transform="matrix(1,0,0,1,2207.61,1196.37)">
                    <path id="path2641" d="M0,-30L-110.95,-30C-119.234,-30 -125.95,-23.284 -125.95,-15C-125.95,-6.716 -119.234,0 -110.95,0L0,0C8.284,0 15,-6.716 15,-15C15,-23.284 8.284,-30 0,-30" style="fill-rule:nonzero;"/>
                </g>
                <g id="g2647" transform="matrix(1,0,0,1,2207.61,1256.89)">
                    <path id="path2645" d="M0,-30L-49.59,-30C-57.874,-30 -64.59,-23.285 -64.59,-15C-64.59,-6.717 -57.874,0 -49.59,0L0,0C8.284,0 15,-6.717 15,-15C15,-23.285 8.284,-30 0,-30" style="fill-rule:nonzero;"/>
                </g>
                <g id="g2651" transform="matrix(1,0,0,1,2400.38,1303.12)">
                    <path id="path2649" d="M0,30L110.96,30C119.244,30 125.96,23.284 125.96,15C125.96,6.716 119.244,0 110.96,0L0,0C-8.284,0 -15,6.716 -15,15C-15,23.284 -8.284,30 0,30" style="fill-rule:nonzero;"/>
                </g>
                <g id="g2655" transform="matrix(1,0,0,1,2400.38,1363.64)">
                    <path id="path2653" d="M0,30L49.601,30C57.885,30 64.601,23.283 64.601,15C64.601,6.715 57.885,0 49.601,0L0,0C-8.284,0 -15,6.715 -15,15C-15,23.283 -8.284,30 0,30" style="fill-rule:nonzero;"/>
                </g>
            </g>
        </g>
    </g>
</svg>
